<svg width="31" height="41" viewBox="0 0 31 41" fill="none" xmlns="http://www.w3.org/2000/svg">
<g clip-path="url(#clip0)">
<path d="M11.537 38.01C11.537 38.0601 11.5221 38.109 11.4943 38.1506C11.4665 38.1922 11.427 38.2246 11.3808 38.2438C11.3346 38.2629 11.2837 38.2679 11.2346 38.2582C11.1855 38.2484 11.1404 38.2243 11.1051 38.1889C11.0697 38.1535 11.0456 38.1084 11.0358 38.0594C11.0261 38.0103 11.0311 37.9594 11.0502 37.9132C11.0694 37.867 11.1018 37.8275 11.1434 37.7997C11.185 37.7719 11.2339 37.757 11.284 37.757C11.3511 37.757 11.4154 37.7837 11.4629 37.8311C11.5103 37.8786 11.537 37.9429 11.537 38.01ZM12.205 36.835C12.1549 36.835 12.106 36.8499 12.0644 36.8777C12.0228 36.9055 11.9904 36.945 11.9712 36.9912C11.9521 37.0374 11.9471 37.0883 11.9568 37.1374C11.9666 37.1865 11.9907 37.2315 12.0261 37.2669C12.0614 37.3023 12.1065 37.3264 12.1556 37.3362C12.2047 37.3459 12.2556 37.3409 12.3018 37.3218C12.348 37.3026 12.3875 37.2702 12.4153 37.2286C12.4431 37.187 12.458 37.1381 12.458 37.088C12.458 37.0209 12.4313 36.9566 12.3839 36.9091C12.3364 36.8617 12.2721 36.835 12.205 36.835ZM13.127 35.913C13.077 35.913 13.0281 35.9278 12.9865 35.9556C12.9449 35.9833 12.9125 36.0228 12.8933 36.069C12.8741 36.1151 12.8691 36.166 12.8788 36.215C12.8884 36.2641 12.9124 36.3091 12.9477 36.3446C12.983 36.38 13.028 36.4042 13.077 36.414C13.126 36.4239 13.1768 36.419 13.2231 36.4C13.2693 36.381 13.3089 36.3488 13.3368 36.3073C13.3648 36.2658 13.3798 36.217 13.38 36.167V36.167C13.3801 36.1338 13.3737 36.1009 13.3611 36.0701C13.3485 36.0394 13.33 36.0114 13.3066 35.9878C13.2832 35.9642 13.2554 35.9455 13.2247 35.9327C13.1941 35.9198 13.1612 35.9131 13.128 35.913H13.127ZM14.048 34.991C13.998 34.991 13.9491 35.0058 13.9075 35.0336C13.8659 35.0613 13.8335 35.1008 13.8143 35.147C13.7951 35.1931 13.7901 35.244 13.7998 35.293C13.8094 35.3421 13.8334 35.3871 13.8687 35.4226C13.904 35.458 13.949 35.4822 13.998 35.492C14.047 35.5019 14.0978 35.497 14.1441 35.478C14.1903 35.459 14.2299 35.4268 14.2578 35.3853C14.2858 35.3438 14.3008 35.295 14.301 35.245C14.301 35.1781 14.2744 35.1139 14.2272 35.0665C14.18 35.0191 14.1159 34.9923 14.049 34.992L14.048 34.991ZM14.97 34.069C14.92 34.069 14.8711 34.0838 14.8295 34.1116C14.7879 34.1393 14.7555 34.1788 14.7363 34.225C14.7171 34.2711 14.7121 34.322 14.7218 34.371C14.7314 34.4201 14.7554 34.4651 14.7907 34.5006C14.826 34.536 14.871 34.5602 14.92 34.57C14.969 34.5799 15.0198 34.575 15.0661 34.556C15.1123 34.537 15.1519 34.5048 15.1798 34.4633C15.2078 34.4218 15.2228 34.373 15.223 34.323V34.323C15.223 34.2559 15.1963 34.1916 15.1489 34.1441C15.1014 34.0967 15.0371 34.07 14.97 34.07V34.069ZM15.892 33.147C15.842 33.147 15.7931 33.1618 15.7515 33.1896C15.7099 33.2173 15.6775 33.2568 15.6583 33.303C15.6391 33.3491 15.6341 33.4 15.6438 33.449C15.6534 33.4981 15.6774 33.5431 15.7127 33.5786C15.748 33.614 15.793 33.6382 15.842 33.648C15.891 33.6579 15.9418 33.653 15.9881 33.634C16.0343 33.615 16.0739 33.5828 16.1018 33.5413C16.1298 33.4998 16.1448 33.451 16.145 33.401V33.401C16.145 33.3339 16.1183 33.2696 16.0709 33.2221C16.0234 33.1747 15.9591 33.148 15.892 33.148V33.147ZM16.814 32.225C16.764 32.225 16.7151 32.2398 16.6735 32.2676C16.6319 32.2953 16.5995 32.3348 16.5803 32.381C16.5611 32.4271 16.5561 32.478 16.5658 32.527C16.5754 32.5761 16.5994 32.6211 16.6347 32.6566C16.67 32.692 16.715 32.7162 16.764 32.726C16.813 32.7359 16.8638 32.731 16.9101 32.712C16.9563 32.693 16.9959 32.6608 17.0238 32.6193C17.0518 32.5778 17.0668 32.529 17.067 32.479C17.0667 32.412 17.04 32.3478 16.9926 32.3004C16.9452 32.253 16.881 32.2263 16.814 32.226V32.225ZM17.736 31.303C17.686 31.303 17.6371 31.3178 17.5955 31.3456C17.5539 31.3733 17.5215 31.4128 17.5023 31.459C17.4831 31.5051 17.4781 31.556 17.4878 31.605C17.4974 31.6541 17.5214 31.6991 17.5567 31.7346C17.592 31.77 17.637 31.7942 17.686 31.804C17.735 31.8139 17.7858 31.809 17.8321 31.79C17.8783 31.771 17.9179 31.7388 17.9458 31.6973C17.9738 31.6558 17.9888 31.607 17.989 31.557C17.9895 31.5235 17.9833 31.4901 17.9709 31.459C17.9584 31.4278 17.9398 31.3994 17.9163 31.3755C17.8927 31.3516 17.8647 31.3326 17.8337 31.3196C17.8028 31.3067 17.7695 31.3 17.736 31.3V31.303ZM11.284 35.913C11.234 35.913 11.1851 35.9278 11.1435 35.9556C11.1019 35.9833 11.0695 36.0228 11.0503 36.069C11.0311 36.1151 11.0261 36.166 11.0358 36.215C11.0454 36.2641 11.0694 36.3091 11.1047 36.3446C11.14 36.38 11.185 36.4042 11.234 36.414C11.283 36.4239 11.3338 36.419 11.3801 36.4C11.4263 36.381 11.4659 36.3488 11.4938 36.3073C11.5218 36.2658 11.5368 36.217 11.537 36.167V36.167C11.5367 36.1001 11.5099 36.036 11.4625 35.9888C11.4151 35.9415 11.3509 35.915 11.284 35.915V35.913ZM12.206 34.991C12.156 34.991 12.1071 35.0058 12.0655 35.0336C12.0239 35.0613 11.9915 35.1008 11.9723 35.147C11.9531 35.1931 11.9481 35.244 11.9578 35.293C11.9674 35.3421 11.9914 35.3871 12.0267 35.4226C12.062 35.458 12.107 35.4822 12.156 35.492C12.205 35.5019 12.2558 35.497 12.3021 35.478C12.3483 35.459 12.3879 35.4268 12.4158 35.3853C12.4438 35.3438 12.4588 35.295 12.459 35.245C12.459 35.1779 12.4323 35.1136 12.3849 35.0661C12.3374 35.0187 12.2731 34.992 12.206 34.992V34.991ZM13.128 34.069C13.078 34.069 13.0291 34.0838 12.9875 34.1116C12.9459 34.1393 12.9135 34.1788 12.8943 34.225C12.8751 34.2711 12.8701 34.322 12.8798 34.371C12.8894 34.4201 12.9134 34.4651 12.9487 34.5006C12.984 34.536 13.029 34.5602 13.078 34.57C13.127 34.5799 13.1778 34.575 13.2241 34.556C13.2703 34.537 13.3099 34.5048 13.3378 34.4633C13.3658 34.4218 13.3808 34.373 13.381 34.323V34.323C13.3807 34.2561 13.3539 34.192 13.3065 34.1448C13.2591 34.0975 13.1949 34.071 13.128 34.071V34.069ZM14.049 33.147C13.999 33.147 13.9501 33.1618 13.9085 33.1896C13.8669 33.2173 13.8345 33.2568 13.8153 33.303C13.7961 33.3491 13.7911 33.4 13.8008 33.449C13.8104 33.4981 13.8344 33.5431 13.8697 33.5786C13.905 33.614 13.95 33.6382 13.999 33.648C14.048 33.6579 14.0988 33.653 14.1451 33.634C14.1913 33.615 14.2309 33.5828 14.2588 33.5413C14.2868 33.4998 14.3018 33.451 14.302 33.401V33.401C14.3014 33.3343 14.2745 33.2704 14.2272 33.2234C14.1798 33.1764 14.1157 33.15 14.049 33.15V33.147ZM14.971 32.225C14.921 32.225 14.8721 32.2398 14.8305 32.2676C14.7889 32.2953 14.7565 32.3348 14.7373 32.381C14.7181 32.4271 14.7131 32.478 14.7228 32.527C14.7324 32.5761 14.7564 32.6211 14.7917 32.6566C14.827 32.692 14.872 32.7162 14.921 32.726C14.97 32.7359 15.0208 32.731 15.0671 32.712C15.1133 32.693 15.1529 32.6608 15.1808 32.6193C15.2088 32.5778 15.2238 32.529 15.224 32.479V32.479C15.224 32.4119 15.1973 32.3476 15.1499 32.3001C15.1024 32.2527 15.0381 32.226 14.971 32.226V32.225ZM15.893 31.303C15.843 31.303 15.7941 31.3178 15.7525 31.3456C15.7109 31.3733 15.6785 31.4128 15.6593 31.459C15.6401 31.5051 15.6351 31.556 15.6448 31.605C15.6544 31.6541 15.6784 31.6991 15.7137 31.7346C15.749 31.77 15.794 31.7942 15.843 31.804C15.892 31.8139 15.9428 31.809 15.9891 31.79C16.0353 31.771 16.0749 31.7388 16.1028 31.6973C16.1308 31.6558 16.1458 31.607 16.146 31.557C16.1457 31.49 16.119 31.4258 16.0716 31.3784C16.0242 31.331 15.96 31.3043 15.893 31.304V31.303ZM11.284 34.07C11.234 34.07 11.1851 34.0848 11.1435 34.1126C11.1019 34.1403 11.0695 34.1798 11.0503 34.226C11.0311 34.2721 11.0261 34.323 11.0358 34.372C11.0454 34.4211 11.0694 34.4661 11.1047 34.5016C11.14 34.537 11.185 34.5612 11.234 34.571C11.283 34.5809 11.3338 34.576 11.3801 34.557C11.4263 34.538 11.4659 34.5058 11.4938 34.4643C11.5218 34.4228 11.5368 34.374 11.537 34.324C11.5371 34.2907 11.5306 34.2577 11.518 34.2269C11.5053 34.1961 11.4867 34.1681 11.4632 34.1445C11.4397 34.1209 11.4118 34.1021 11.381 34.0894C11.3503 34.0766 11.3173 34.07 11.284 34.07V34.07ZM12.206 33.148C12.156 33.148 12.1071 33.1628 12.0655 33.1906C12.0239 33.2183 11.9915 33.2578 11.9723 33.304C11.9531 33.3501 11.9481 33.401 11.9578 33.45C11.9674 33.4991 11.9914 33.5441 12.0267 33.5796C12.062 33.615 12.107 33.6392 12.156 33.649C12.205 33.6589 12.2558 33.654 12.3021 33.635C12.3483 33.616 12.3879 33.5838 12.4158 33.5423C12.4438 33.5008 12.4588 33.452 12.459 33.402V33.402C12.459 33.3349 12.4323 33.2706 12.3849 33.2231C12.3374 33.1757 12.2731 33.149 12.206 33.149V33.148ZM13.128 32.226C13.078 32.226 13.0291 32.2408 12.9875 32.2686C12.9459 32.2963 12.9135 32.3358 12.8943 32.382C12.8751 32.4281 12.8701 32.479 12.8798 32.528C12.8894 32.5771 12.9134 32.6221 12.9487 32.6576C12.984 32.693 13.029 32.7172 13.078 32.727C13.127 32.7369 13.1778 32.732 13.2241 32.713C13.2703 32.694 13.3099 32.6618 13.3378 32.6203C13.3658 32.5788 13.3808 32.53 13.381 32.48V32.48C13.381 32.4468 13.3744 32.4139 13.3617 32.3832C13.349 32.3525 13.3304 32.3246 13.3069 32.3011C13.2834 32.2776 13.2555 32.259 13.2248 32.2463C13.1941 32.2336 13.1612 32.227 13.128 32.227V32.226ZM14.049 31.304C13.999 31.304 13.9501 31.3188 13.9085 31.3466C13.8669 31.3743 13.8345 31.4138 13.8153 31.46C13.7961 31.5061 13.7911 31.557 13.8008 31.606C13.8104 31.6551 13.8344 31.7001 13.8697 31.7356C13.905 31.771 13.95 31.7952 13.999 31.805C14.048 31.8149 14.0988 31.81 14.1451 31.791C14.1913 31.772 14.2309 31.7398 14.2588 31.6983C14.2868 31.6568 14.3018 31.608 14.302 31.558V31.558C14.3017 31.4911 14.2749 31.427 14.2275 31.3798C14.1801 31.3325 14.1159 31.306 14.049 31.306V31.304ZM11.284 32.224C11.234 32.224 11.1851 32.2388 11.1435 32.2666C11.1019 32.2943 11.0695 32.3338 11.0503 32.38C11.0311 32.4261 11.0261 32.477 11.0358 32.526C11.0454 32.5751 11.0694 32.6201 11.1047 32.6556C11.14 32.691 11.185 32.7152 11.234 32.725C11.283 32.7349 11.3338 32.73 11.3801 32.711C11.4263 32.692 11.4659 32.6598 11.4938 32.6183C11.5218 32.5768 11.5368 32.528 11.537 32.478V32.478C11.537 32.4109 11.5103 32.3466 11.4629 32.2991C11.4154 32.2517 11.3511 32.225 11.284 32.225V32.224ZM12.206 31.303C12.156 31.303 12.1071 31.3178 12.0655 31.3456C12.0239 31.3733 11.9915 31.4128 11.9723 31.459C11.9531 31.5051 11.9481 31.556 11.9578 31.605C11.9674 31.6541 11.9914 31.6991 12.0267 31.7346C12.062 31.77 12.107 31.7942 12.156 31.804C12.205 31.8139 12.2558 31.809 12.3021 31.79C12.3483 31.771 12.3879 31.7388 12.4158 31.6973C12.4438 31.6558 12.4588 31.607 12.459 31.557V31.557C12.4595 31.5234 12.4533 31.49 12.4408 31.4587C12.4282 31.4275 12.4096 31.3991 12.3859 31.3752C12.3623 31.3512 12.3341 31.3323 12.303 31.3194C12.2719 31.3065 12.2386 31.2999 12.205 31.3L12.206 31.303ZM2.98996 31.812C3.03996 31.8118 3.08878 31.7968 3.13025 31.7689C3.17172 31.741 3.204 31.7014 3.22299 31.6551C3.24199 31.6089 3.24685 31.5581 3.23698 31.509C3.22711 31.46 3.20293 31.415 3.16751 31.3798C3.13209 31.3445 3.087 31.3205 3.03795 31.3108C2.98891 31.3011 2.93809 31.3062 2.89192 31.3254C2.84574 31.3445 2.80629 31.377 2.77853 31.4186C2.75078 31.4601 2.73596 31.509 2.73596 31.559C2.73596 31.5923 2.74254 31.6253 2.75532 31.6561C2.76809 31.6868 2.78682 31.7148 2.81042 31.7383C2.83402 31.7618 2.86203 31.7804 2.89284 31.793C2.92365 31.8057 2.95666 31.8121 2.98996 31.812ZM3.91196 32.734C3.96196 32.7338 4.01078 32.7188 4.05225 32.6909C4.09372 32.663 4.12599 32.6234 4.14499 32.5771C4.16399 32.5309 4.16885 32.4801 4.15898 32.431C4.1491 32.382 4.12493 32.337 4.08951 32.3018C4.05409 32.2665 4.009 32.2425 3.95995 32.2328C3.91091 32.2231 3.86009 32.2282 3.81392 32.2474C3.76774 32.2665 3.72829 32.299 3.70053 32.3406C3.67278 32.3821 3.65796 32.431 3.65796 32.481C3.65796 32.5143 3.66454 32.5473 3.67732 32.5781C3.69009 32.6088 3.70882 32.6368 3.73242 32.6603C3.75602 32.6838 3.78403 32.7024 3.81484 32.715C3.84565 32.7277 3.87865 32.7341 3.91196 32.734V32.734ZM4.83396 33.149C4.78392 33.149 4.73501 33.1639 4.6934 33.1917C4.6518 33.2195 4.61937 33.259 4.60022 33.3052C4.58107 33.3514 4.57606 33.4023 4.58582 33.4514C4.59559 33.5005 4.61968 33.5455 4.65507 33.5809C4.69045 33.6163 4.73553 33.6404 4.78461 33.6502C4.83368 33.6599 4.88455 33.6549 4.93078 33.6358C4.97701 33.6166 5.01652 33.5842 5.04432 33.5426C5.07212 33.501 5.08696 33.4521 5.08696 33.402C5.08696 33.3349 5.06031 33.2706 5.01286 33.2231C4.96541 33.1757 4.90106 33.149 4.83396 33.149V33.149ZM5.75596 34.071C5.70592 34.071 5.65701 34.0859 5.6154 34.1137C5.5738 34.1415 5.54137 34.181 5.52222 34.2272C5.50307 34.2734 5.49806 34.3243 5.50782 34.3734C5.51759 34.4225 5.54168 34.4675 5.57707 34.5029C5.61245 34.5383 5.65753 34.5624 5.70661 34.5722C5.75568 34.5819 5.80655 34.5769 5.85278 34.5578C5.89901 34.5386 5.93853 34.5062 5.96633 34.4646C5.99413 34.423 6.00896 34.3741 6.00896 34.324C6.00896 34.2908 6.00242 34.2579 5.9897 34.2272C5.97699 34.1965 5.95835 34.1686 5.93486 34.1451C5.91137 34.1216 5.88348 34.103 5.85278 34.0903C5.82209 34.0776 5.78919 34.071 5.75596 34.071V34.071ZM6.67796 34.993C6.62792 34.993 6.57901 35.0079 6.5374 35.0357C6.4958 35.0635 6.46337 35.103 6.44422 35.1492C6.42507 35.1954 6.42006 35.2463 6.42982 35.2954C6.43959 35.3444 6.46368 35.3895 6.49907 35.4249C6.53445 35.4603 6.57953 35.4844 6.62861 35.4942C6.67768 35.5039 6.72855 35.4989 6.77478 35.4798C6.82101 35.4606 6.86053 35.4282 6.88833 35.3866C6.91613 35.345 6.93096 35.2961 6.93096 35.246C6.93096 35.1789 6.90431 35.1146 6.85686 35.0671C6.80941 35.0197 6.74506 34.993 6.67796 34.993ZM7.59996 35.915C7.54992 35.915 7.50101 35.9299 7.4594 35.9577C7.4178 35.9855 7.38537 36.025 7.36622 36.0712C7.34707 36.1174 7.34206 36.1683 7.35182 36.2174C7.36159 36.2665 7.38568 36.3115 7.42107 36.3469C7.45645 36.3823 7.50153 36.4064 7.55061 36.4162C7.59968 36.4259 7.65055 36.4209 7.69678 36.4018C7.74301 36.3826 7.78253 36.3502 7.81033 36.3086C7.83813 36.267 7.85296 36.2181 7.85296 36.168C7.8531 36.1347 7.84665 36.1017 7.83399 36.0709C7.82134 36.0401 7.80272 36.0121 7.77922 35.9885C7.75571 35.9649 7.72777 35.9461 7.69701 35.9334C7.66625 35.9206 7.63327 35.914 7.59996 35.914V35.915ZM8.52196 36.837C8.47197 36.837 8.42309 36.8518 8.38151 36.8796C8.33993 36.9073 8.3075 36.9468 8.28832 36.993C8.26914 37.0391 8.26407 37.09 8.27375 37.139C8.28344 37.1881 8.30743 37.2331 8.34272 37.2686C8.378 37.304 8.42298 37.3282 8.472 37.338C8.52101 37.3479 8.57184 37.343 8.61809 37.324C8.66434 37.305 8.70392 37.2728 8.73184 37.2313C8.75976 37.1898 8.77477 37.141 8.77496 37.091V37.091C8.77496 37.0239 8.74831 36.9596 8.70086 36.9121C8.65342 36.8647 8.58906 36.838 8.52196 36.838V36.838V36.837ZM9.44396 37.759C9.39397 37.759 9.34509 37.7738 9.30351 37.8016C9.26193 37.8293 9.2295 37.8688 9.21032 37.915C9.19114 37.9611 9.18607 38.012 9.19575 38.061C9.20544 38.1101 9.22943 38.1551 9.26472 38.1906C9.3 38.226 9.34499 38.2502 9.394 38.26C9.44301 38.2699 9.49384 38.265 9.54009 38.246C9.58634 38.227 9.62592 38.1948 9.65384 38.1533C9.68176 38.1118 9.69677 38.063 9.69696 38.013V38.013C9.69696 37.9459 9.67031 37.8816 9.62286 37.8341C9.57542 37.7867 9.51106 37.76 9.44396 37.76V37.759ZM4.83196 31.814C4.88196 31.8138 4.93078 31.7988 4.97225 31.7709C5.01372 31.743 5.04599 31.7034 5.06499 31.6571C5.08399 31.6109 5.08885 31.5601 5.07898 31.511C5.0691 31.462 5.04493 31.417 5.00951 31.3818C4.97409 31.3465 4.929 31.3225 4.87995 31.3128C4.8309 31.3031 4.78009 31.3082 4.73391 31.3274C4.68774 31.3465 4.64829 31.379 4.62053 31.4206C4.59278 31.4621 4.57796 31.511 4.57796 31.561C4.57796 31.5943 4.58454 31.6273 4.59732 31.6581C4.61009 31.6888 4.62882 31.7168 4.65242 31.7403C4.67602 31.7638 4.70403 31.7824 4.73484 31.795C4.76565 31.8077 4.79865 31.8141 4.83196 31.814V31.814ZM5.75296 32.735C5.80296 32.7348 5.85178 32.7198 5.89325 32.6919C5.93472 32.664 5.96699 32.6244 5.98599 32.5781C6.00499 32.5319 6.00985 32.4811 5.99998 32.432C5.9901 32.383 5.96593 32.338 5.93051 32.3028C5.89509 32.2675 5.85 32.2435 5.80095 32.2338C5.7519 32.2241 5.70109 32.2292 5.65491 32.2484C5.60874 32.2675 5.56929 32.3 5.54153 32.3416C5.51378 32.3831 5.49896 32.432 5.49896 32.482C5.49896 32.5153 5.50554 32.5483 5.51832 32.5791C5.53109 32.6098 5.54982 32.6378 5.57342 32.6613C5.59702 32.6848 5.62503 32.7034 5.65584 32.716C5.68665 32.7287 5.71965 32.7351 5.75296 32.735V32.735ZM6.67496 33.657C6.72496 33.6568 6.77378 33.6418 6.81525 33.6139C6.85672 33.586 6.88899 33.5464 6.90799 33.5001C6.92699 33.4539 6.93185 33.4031 6.92198 33.354C6.9121 33.305 6.88793 33.26 6.85251 33.2248C6.81709 33.1895 6.772 33.1655 6.72295 33.1558C6.6739 33.1461 6.62309 33.1512 6.57691 33.1704C6.53074 33.1896 6.49129 33.222 6.46353 33.2636C6.43578 33.3051 6.42096 33.354 6.42096 33.404C6.42096 33.4373 6.42754 33.4703 6.44032 33.5011C6.45309 33.5318 6.47182 33.5598 6.49542 33.5833C6.51902 33.6068 6.54703 33.6254 6.57784 33.638C6.60865 33.6507 6.64165 33.6571 6.67496 33.657V33.657ZM7.59696 34.579C7.64696 34.5788 7.69578 34.5638 7.73725 34.5359C7.77872 34.508 7.81099 34.4684 7.82999 34.4221C7.84899 34.3759 7.85385 34.3251 7.84398 34.276C7.8341 34.227 7.80993 34.182 7.77451 34.1468C7.73909 34.1115 7.694 34.0875 7.64495 34.0778C7.5959 34.0681 7.54509 34.0732 7.49891 34.0924C7.45274 34.1115 7.41329 34.144 7.38553 34.1856C7.35778 34.2271 7.34296 34.276 7.34296 34.326C7.34296 34.3593 7.34954 34.3923 7.36232 34.4231C7.37509 34.4538 7.39382 34.4818 7.41742 34.5053C7.44102 34.5288 7.46903 34.5474 7.49984 34.56C7.53065 34.5727 7.56365 34.5791 7.59696 34.579V34.579ZM8.51896 35.501C8.56896 35.5008 8.61778 35.4858 8.65925 35.4579C8.70072 35.43 8.733 35.3904 8.75199 35.3441C8.77099 35.2979 8.77585 35.2471 8.76598 35.198C8.75611 35.149 8.73193 35.1041 8.69651 35.0688C8.66109 35.0335 8.616 35.0095 8.56695 34.9998C8.5179 34.9901 8.46709 34.9952 8.42092 35.0144C8.37474 35.0335 8.33529 35.066 8.30753 35.1076C8.27978 35.1491 8.26496 35.198 8.26496 35.248C8.26496 35.2813 8.27154 35.3143 8.28432 35.3451C8.29709 35.3758 8.31582 35.4038 8.33942 35.4273C8.36302 35.4508 8.39103 35.4694 8.42184 35.482C8.45265 35.4947 8.48566 35.5011 8.51896 35.501V35.501ZM9.44096 36.423C9.49096 36.4228 9.53978 36.4078 9.58125 36.3799C9.62272 36.352 9.655 36.3124 9.67399 36.2661C9.69299 36.2199 9.69785 36.1691 9.68798 36.12C9.6781 36.071 9.65393 36.0261 9.61851 35.9908C9.58309 35.9555 9.538 35.9315 9.48895 35.9218C9.4399 35.9121 9.38909 35.9172 9.34292 35.9364C9.29674 35.9555 9.25729 35.988 9.22953 36.0296C9.20178 36.0711 9.18696 36.12 9.18696 36.17C9.18696 36.2033 9.19354 36.2363 9.20632 36.2671C9.21909 36.2978 9.23782 36.3258 9.26142 36.3493C9.28502 36.3728 9.31303 36.3914 9.34384 36.404C9.37465 36.4167 9.40766 36.4231 9.44096 36.423V36.423ZM6.67596 31.813C6.72596 31.8128 6.77478 31.7978 6.81625 31.7699C6.85772 31.742 6.88999 31.7024 6.90899 31.6561C6.92799 31.6099 6.93285 31.5591 6.92298 31.51C6.9131 31.461 6.88893 31.416 6.85351 31.3808C6.81809 31.3455 6.773 31.3215 6.72395 31.3118C6.6749 31.3021 6.62409 31.3072 6.57791 31.3264C6.53174 31.3455 6.49229 31.378 6.46453 31.4196C6.43678 31.4611 6.42196 31.51 6.42196 31.56C6.42196 31.5933 6.42854 31.6263 6.44132 31.6571C6.45409 31.6878 6.47282 31.7158 6.49642 31.7393C6.52002 31.7628 6.54803 31.7814 6.57884 31.794C6.60965 31.8067 6.64265 31.8131 6.67596 31.813ZM7.59796 32.735C7.64796 32.7348 7.69677 32.7198 7.73825 32.6919C7.77972 32.664 7.812 32.6244 7.83099 32.5781C7.84999 32.5319 7.85485 32.4811 7.84498 32.432C7.8351 32.383 7.81093 32.338 7.77551 32.3028C7.74009 32.2675 7.695 32.2435 7.64595 32.2338C7.5969 32.2241 7.54609 32.2292 7.49991 32.2484C7.45374 32.2675 7.41429 32.3 7.38653 32.3416C7.35878 32.3831 7.34396 32.432 7.34396 32.482C7.34396 32.5153 7.35054 32.5483 7.36332 32.5791C7.37609 32.6098 7.39482 32.6378 7.41842 32.6613C7.44202 32.6848 7.47003 32.7034 7.50084 32.716C7.53165 32.7287 7.56465 32.7351 7.59796 32.735V32.735ZM8.51996 33.657C8.56996 33.6568 8.61878 33.6418 8.66025 33.6139C8.70172 33.586 8.734 33.5464 8.75299 33.5001C8.77199 33.4539 8.77685 33.4031 8.76698 33.354C8.75711 33.305 8.73293 33.26 8.69751 33.2248C8.66209 33.1895 8.617 33.1655 8.56796 33.1558C8.51891 33.1461 8.46809 33.1512 8.42192 33.1704C8.37574 33.1896 8.33629 33.222 8.30853 33.2636C8.28078 33.3051 8.26596 33.354 8.26596 33.404C8.26596 33.4373 8.27254 33.4703 8.28532 33.5011C8.29809 33.5318 8.31682 33.5598 8.34042 33.5833C8.36402 33.6068 8.39203 33.6254 8.42284 33.638C8.45365 33.6507 8.48666 33.6571 8.51996 33.657V33.657ZM9.44196 34.579C9.49196 34.5788 9.54078 34.5638 9.58225 34.5359C9.62372 34.508 9.65599 34.4684 9.67499 34.4221C9.69399 34.3759 9.69885 34.3251 9.68898 34.276C9.67911 34.227 9.65493 34.182 9.61951 34.1468C9.58409 34.1115 9.539 34.0875 9.48995 34.0778C9.44091 34.0681 9.39009 34.0732 9.34391 34.0924C9.29774 34.1115 9.25829 34.144 9.23053 34.1856C9.20278 34.2271 9.18796 34.276 9.18796 34.326C9.18796 34.3593 9.19454 34.3923 9.20732 34.4231C9.22009 34.4538 9.23882 34.4818 9.26242 34.5053C9.28602 34.5288 9.31403 34.5474 9.34484 34.56C9.37565 34.5727 9.40866 34.5791 9.44196 34.579V34.579ZM8.52196 31.814C8.57196 31.8138 8.62078 31.7988 8.66225 31.7709C8.70372 31.743 8.736 31.7034 8.75499 31.6571C8.77399 31.6109 8.77885 31.5601 8.76898 31.511C8.75911 31.462 8.73493 31.417 8.69951 31.3818C8.66409 31.3465 8.619 31.3225 8.56995 31.3128C8.52091 31.3031 8.47009 31.3082 8.42391 31.3274C8.37774 31.3465 8.33829 31.379 8.31053 31.4206C8.28278 31.4621 8.26796 31.511 8.26796 31.561C8.26796 31.5943 8.27454 31.6273 8.28732 31.6581C8.30009 31.6888 8.31882 31.7168 8.34242 31.7403C8.36602 31.7638 8.39403 31.7824 8.42484 31.795C8.45565 31.8077 8.48866 31.8141 8.52196 31.814ZM9.44396 32.736C9.49396 32.7358 9.54278 32.7208 9.58425 32.6929C9.62572 32.665 9.658 32.6254 9.67699 32.5791C9.69599 32.5329 9.70085 32.4821 9.69098 32.433C9.68111 32.384 9.65693 32.3391 9.62151 32.3038C9.58609 32.2685 9.541 32.2445 9.49195 32.2348C9.44291 32.2251 9.39209 32.2302 9.34591 32.2494C9.29974 32.2685 9.26029 32.301 9.23253 32.3426C9.20478 32.3841 9.18996 32.433 9.18996 32.483C9.18996 32.5163 9.19654 32.5493 9.20932 32.5801C9.22209 32.6108 9.24082 32.6388 9.26442 32.6623C9.28802 32.6858 9.31603 32.7044 9.34684 32.717C9.37765 32.7297 9.41066 32.7361 9.44396 32.736V32.736ZM2.98996 21.675C3.03996 21.6748 3.08878 21.6598 3.13025 21.6319C3.17172 21.604 3.204 21.5644 3.22299 21.5181C3.24199 21.4719 3.24685 21.4211 3.23698 21.372C3.22711 21.323 3.20293 21.278 3.16751 21.2428C3.13209 21.2075 3.087 21.1835 3.03795 21.1738C2.98891 21.1641 2.93809 21.1692 2.89192 21.1884C2.84574 21.2075 2.80629 21.24 2.77853 21.2816C2.75078 21.3231 2.73596 21.372 2.73596 21.422C2.73596 21.4553 2.74254 21.4883 2.75532 21.5191C2.76809 21.5498 2.78682 21.5778 2.81042 21.6013C2.83402 21.6248 2.86203 21.6434 2.89284 21.656C2.92365 21.6687 2.95666 21.6751 2.98996 21.675ZM3.91196 22.597C3.96196 22.5968 4.01078 22.5818 4.05225 22.5539C4.09372 22.526 4.12599 22.4864 4.14499 22.4401C4.16399 22.3939 4.16885 22.3431 4.15898 22.294C4.1491 22.245 4.12493 22.2 4.08951 22.1648C4.05409 22.1295 4.009 22.1055 3.95995 22.0958C3.91091 22.0861 3.86009 22.0912 3.81392 22.1104C3.76774 22.1295 3.72829 22.162 3.70053 22.2036C3.67278 22.2451 3.65796 22.294 3.65796 22.344C3.65796 22.3773 3.66454 22.4103 3.67732 22.4411C3.69009 22.4718 3.70882 22.4998 3.73242 22.5233C3.75602 22.5468 3.78403 22.5654 3.81484 22.578C3.84565 22.5907 3.87865 22.5971 3.91196 22.597ZM4.83396 23.012C4.78392 23.012 4.73501 23.0269 4.6934 23.0547C4.6518 23.0825 4.61937 23.122 4.60022 23.1682C4.58107 23.2144 4.57606 23.2653 4.58582 23.3144C4.59559 23.3634 4.61968 23.4085 4.65507 23.4439C4.69045 23.4793 4.73553 23.5034 4.78461 23.5132C4.83368 23.5229 4.88455 23.5179 4.93078 23.4988C4.97701 23.4796 5.01652 23.4472 5.04432 23.4056C5.07212 23.364 5.08696 23.3151 5.08696 23.265C5.08696 23.1979 5.06031 23.1336 5.01286 23.0861C4.96541 23.0387 4.90106 23.012 4.83396 23.012ZM5.75596 23.934C5.70592 23.934 5.65701 23.9489 5.6154 23.9767C5.5738 24.0045 5.54137 24.044 5.52222 24.0902C5.50307 24.1364 5.49806 24.1873 5.50782 24.2364C5.51759 24.2854 5.54168 24.3305 5.57707 24.3659C5.61245 24.4013 5.65753 24.4254 5.70661 24.4352C5.75568 24.4449 5.80655 24.4399 5.85278 24.4208C5.89901 24.4016 5.93853 24.3692 5.96633 24.3276C5.99413 24.286 6.00896 24.2371 6.00896 24.187C6.00896 24.1538 6.00242 24.1209 5.9897 24.0902C5.97699 24.0595 5.95835 24.0316 5.93486 24.0081C5.91137 23.9846 5.88348 23.966 5.85278 23.9533C5.82209 23.9406 5.78919 23.934 5.75596 23.934V23.934ZM6.67796 24.856C6.62792 24.856 6.57901 24.8709 6.5374 24.8987C6.4958 24.9265 6.46337 24.966 6.44422 25.0122C6.42507 25.0584 6.42006 25.1093 6.42982 25.1584C6.43959 25.2074 6.46368 25.2525 6.49907 25.2879C6.53445 25.3233 6.57953 25.3474 6.62861 25.3572C6.67768 25.3669 6.72855 25.3619 6.77478 25.3428C6.82101 25.3236 6.86053 25.2912 6.88833 25.2496C6.91613 25.208 6.93096 25.1591 6.93096 25.109C6.93096 25.0419 6.90431 24.9776 6.85686 24.9301C6.80941 24.8827 6.74506 24.856 6.67796 24.856V24.856ZM7.59996 25.778C7.54997 25.778 7.50109 25.7928 7.45951 25.8206C7.41792 25.8483 7.3855 25.8878 7.36632 25.934C7.34714 25.9801 7.34207 26.031 7.35175 26.08C7.36143 26.1291 7.38543 26.1741 7.42071 26.2096C7.456 26.245 7.50098 26.2692 7.55 26.279C7.59901 26.2889 7.64984 26.284 7.69609 26.265C7.74234 26.246 7.78192 26.2138 7.80984 26.1723C7.83776 26.1308 7.85277 26.082 7.85296 26.032C7.85296 25.9649 7.82631 25.9006 7.77886 25.8531C7.73141 25.8057 7.66706 25.779 7.59996 25.779V25.778ZM8.52196 26.7C8.47193 26.7 8.42301 26.7149 8.3814 26.7427C8.3398 26.7705 8.30737 26.81 8.28822 26.8562C8.26907 26.9024 8.26406 26.9533 8.27382 27.0024C8.28359 27.0514 8.30768 27.0965 8.34307 27.1319C8.37845 27.1673 8.42353 27.1914 8.47261 27.2012C8.52168 27.2109 8.57255 27.2059 8.61878 27.1868C8.66501 27.1676 8.70453 27.1352 8.73233 27.0936C8.76013 27.052 8.77496 27.0031 8.77496 26.953C8.77496 26.9196 8.76836 26.8866 8.75552 26.8557C8.74268 26.8249 8.72386 26.7969 8.70016 26.7734C8.67645 26.7499 8.64832 26.7313 8.6174 26.7187C8.58647 26.7061 8.55336 26.6998 8.51996 26.7V26.7H8.52196ZM9.44396 27.622C9.39393 27.622 9.34501 27.6369 9.3034 27.6647C9.2618 27.6925 9.22937 27.732 9.21022 27.7782C9.19107 27.8244 9.18606 27.8753 9.19582 27.9244C9.20559 27.9734 9.22968 28.0185 9.26507 28.0539C9.30045 28.0893 9.34553 28.1134 9.39461 28.1232C9.44368 28.1329 9.49455 28.1279 9.54078 28.1088C9.58701 28.0896 9.62653 28.0572 9.65433 28.0156C9.68213 27.974 9.69696 27.9251 9.69696 27.875C9.69696 27.8079 9.67031 27.7436 9.62286 27.6961C9.57542 27.6487 9.51106 27.622 9.44396 27.622ZM4.83396 21.677C4.88396 21.6768 4.93278 21.6618 4.97425 21.6339C5.01572 21.606 5.04799 21.5664 5.06699 21.5201C5.08599 21.4739 5.09085 21.4231 5.08098 21.374C5.0711 21.325 5.04693 21.28 5.01151 21.2448C4.97609 21.2095 4.931 21.1855 4.88195 21.1758C4.8329 21.1661 4.78209 21.1712 4.73591 21.1904C4.68974 21.2095 4.65029 21.242 4.62253 21.2836C4.59478 21.3251 4.57996 21.374 4.57996 21.424C4.57996 21.4573 4.58654 21.4903 4.59932 21.5211C4.61209 21.5518 4.63082 21.5798 4.65442 21.6033C4.67802 21.6268 4.70603 21.6454 4.73684 21.658C4.76765 21.6707 4.80065 21.6771 4.83396 21.677V21.677ZM5.75596 22.599C5.80596 22.5988 5.85477 22.5838 5.89625 22.5559C5.93772 22.528 5.97 22.4884 5.98899 22.4421C6.00799 22.3959 6.01285 22.3451 6.00298 22.296C5.9931 22.247 5.96893 22.202 5.93351 22.1668C5.89809 22.1315 5.853 22.1075 5.80395 22.0978C5.7549 22.0881 5.70409 22.0932 5.65791 22.1124C5.61174 22.1315 5.57229 22.164 5.54453 22.2056C5.51678 22.2471 5.50196 22.296 5.50196 22.346C5.50196 22.3793 5.50854 22.4123 5.52132 22.4431C5.53409 22.4738 5.55282 22.5018 5.57642 22.5253C5.60002 22.5488 5.62803 22.5674 5.65884 22.58C5.68965 22.5927 5.72265 22.5991 5.75596 22.599ZM6.67796 23.521C6.72796 23.5208 6.77678 23.5058 6.81825 23.4779C6.85972 23.45 6.89199 23.4104 6.91099 23.3641C6.92999 23.3179 6.93485 23.2671 6.92498 23.218C6.9151 23.169 6.89093 23.124 6.85551 23.0888C6.82009 23.0535 6.775 23.0295 6.72595 23.0198C6.6769 23.0101 6.62609 23.0152 6.57992 23.0344C6.53374 23.0535 6.49429 23.086 6.46653 23.1276C6.43878 23.1691 6.42396 23.218 6.42396 23.268C6.42396 23.3013 6.43054 23.3343 6.44332 23.3651C6.45609 23.3958 6.47482 23.4238 6.49842 23.4473C6.52202 23.4708 6.55003 23.4894 6.58084 23.502C6.61165 23.5147 6.64465 23.5211 6.67796 23.521V23.521ZM7.59996 24.443C7.64996 24.4428 7.69878 24.4278 7.74025 24.3999C7.78172 24.372 7.81399 24.3324 7.83299 24.2861C7.85199 24.2399 7.85685 24.1891 7.84698 24.14C7.8371 24.091 7.81293 24.046 7.77751 24.0108C7.74209 23.9755 7.697 23.9515 7.64795 23.9418C7.5989 23.9321 7.54809 23.9372 7.50191 23.9564C7.45574 23.9755 7.41629 24.008 7.38853 24.0496C7.36078 24.0911 7.34596 24.14 7.34596 24.19C7.34596 24.2233 7.35254 24.2563 7.36532 24.2871C7.37809 24.3178 7.39682 24.3458 7.42042 24.3693C7.44402 24.3928 7.47203 24.4114 7.50284 24.424C7.53365 24.4367 7.56665 24.4431 7.59996 24.443ZM8.52196 25.365C8.57196 25.3648 8.62078 25.3498 8.66225 25.3219C8.70372 25.294 8.736 25.2544 8.75499 25.2081C8.77399 25.1619 8.77885 25.1111 8.76898 25.062C8.75911 25.013 8.73493 24.968 8.69951 24.9328C8.66409 24.8975 8.619 24.8735 8.56995 24.8638C8.52091 24.8541 8.47009 24.8592 8.42391 24.8784C8.37774 24.8975 8.33829 24.93 8.31053 24.9716C8.28278 25.0131 8.26796 25.062 8.26796 25.112C8.26796 25.1453 8.27454 25.1783 8.28732 25.2091C8.30009 25.2398 8.31882 25.2678 8.34242 25.2913C8.36602 25.3148 8.39403 25.3334 8.42484 25.346C8.45565 25.3587 8.48866 25.3651 8.52196 25.365ZM9.44396 26.287C9.49392 26.2868 9.54269 26.2718 9.58415 26.244C9.6256 26.2161 9.65787 26.1766 9.67689 26.1304C9.69592 26.0842 9.70085 26.0334 9.69105 25.9844C9.68126 25.9354 9.65718 25.8904 9.62186 25.8551C9.58654 25.8198 9.54155 25.7957 9.49257 25.7859C9.44358 25.7761 9.39279 25.7811 9.34661 25.8001C9.30042 25.8191 9.26089 25.8514 9.23302 25.8928C9.20514 25.9343 9.19016 25.9831 9.18996 26.033C9.18983 26.0664 9.19631 26.0995 9.20903 26.1304C9.22175 26.1612 9.24045 26.1893 9.26406 26.2129C9.28768 26.2365 9.31573 26.2552 9.34661 26.2679C9.37748 26.2807 9.41057 26.2871 9.44396 26.287V26.287ZM6.67596 21.675C6.72596 21.6748 6.77478 21.6598 6.81625 21.6319C6.85772 21.604 6.88999 21.5644 6.90899 21.5181C6.92799 21.4719 6.93285 21.4211 6.92298 21.372C6.9131 21.323 6.88893 21.278 6.85351 21.2428C6.81809 21.2075 6.773 21.1835 6.72395 21.1738C6.6749 21.1641 6.62409 21.1692 6.57791 21.1884C6.53174 21.2075 6.49229 21.24 6.46453 21.2816C6.43678 21.3231 6.42196 21.372 6.42196 21.422C6.42196 21.4553 6.42854 21.4883 6.44132 21.5191C6.45409 21.5498 6.47282 21.5778 6.49642 21.6013C6.52002 21.6248 6.54803 21.6434 6.57884 21.656C6.60965 21.6687 6.64265 21.6751 6.67596 21.675ZM7.59996 22.6C7.64996 22.5998 7.69878 22.5848 7.74025 22.5569C7.78172 22.529 7.81399 22.4894 7.83299 22.4431C7.85199 22.3969 7.85685 22.3461 7.84698 22.297C7.8371 22.248 7.81293 22.203 7.77751 22.1678C7.74209 22.1325 7.697 22.1085 7.64795 22.0988C7.5989 22.0891 7.54809 22.0942 7.50191 22.1134C7.45574 22.1325 7.41629 22.165 7.38853 22.2066C7.36078 22.2481 7.34596 22.297 7.34596 22.347C7.34596 22.3803 7.35254 22.4133 7.36532 22.4441C7.37809 22.4748 7.39682 22.5028 7.42042 22.5263C7.44402 22.5498 7.47203 22.5684 7.50284 22.581C7.53365 22.5937 7.56665 22.6001 7.59996 22.6ZM8.52196 23.522C8.57196 23.5218 8.62078 23.5068 8.66225 23.4789C8.70372 23.451 8.736 23.4114 8.75499 23.3651C8.77399 23.3189 8.77885 23.2681 8.76898 23.219C8.75911 23.17 8.73493 23.125 8.69951 23.0898C8.66409 23.0545 8.619 23.0305 8.56995 23.0208C8.52091 23.0111 8.47009 23.0162 8.42391 23.0354C8.37774 23.0545 8.33829 23.087 8.31053 23.1286C8.28278 23.1701 8.26796 23.219 8.26796 23.269C8.26796 23.3023 8.27454 23.3353 8.28732 23.3661C8.30009 23.3968 8.31882 23.4248 8.34242 23.4483C8.36602 23.4718 8.39403 23.4904 8.42484 23.503C8.45565 23.5157 8.48866 23.5221 8.52196 23.522ZM9.44396 24.444C9.49396 24.4438 9.54278 24.4288 9.58425 24.4009C9.62572 24.373 9.658 24.3334 9.67699 24.2871C9.69599 24.2409 9.70085 24.1901 9.69098 24.141C9.68111 24.092 9.65693 24.047 9.62151 24.0118C9.58609 23.9765 9.541 23.9525 9.49195 23.9428C9.44291 23.9331 9.39209 23.9382 9.34591 23.9574C9.29974 23.9765 9.26029 24.009 9.23253 24.0506C9.20478 24.0921 9.18996 24.141 9.18996 24.191C9.18996 24.2243 9.19654 24.2573 9.20932 24.2881C9.22209 24.3188 9.24082 24.3468 9.26442 24.3703C9.28802 24.3938 9.31603 24.4124 9.34684 24.425C9.37765 24.4377 9.41066 24.4441 9.44396 24.444ZM8.52396 21.679C8.57396 21.6788 8.62278 21.6638 8.66425 21.6359C8.70572 21.608 8.738 21.5684 8.75699 21.5221C8.77599 21.4759 8.78085 21.4251 8.77098 21.376C8.76111 21.327 8.73693 21.282 8.70151 21.2468C8.66609 21.2115 8.621 21.1875 8.57195 21.1778C8.52291 21.1681 8.47209 21.1732 8.42592 21.1924C8.37974 21.2115 8.34029 21.244 8.31253 21.2856C8.28478 21.3271 8.26996 21.376 8.26996 21.426C8.26996 21.4593 8.27654 21.4923 8.28932 21.5231C8.30209 21.5538 8.32082 21.5818 8.34442 21.6053C8.36802 21.6288 8.39603 21.6474 8.42684 21.66C8.45765 21.6727 8.49066 21.6791 8.52396 21.679ZM9.44596 22.601C9.49596 22.6008 9.54478 22.5858 9.58625 22.5579C9.62772 22.53 9.66 22.4904 9.67899 22.4441C9.69799 22.3979 9.70285 22.3471 9.69298 22.298C9.68311 22.249 9.65893 22.204 9.62351 22.1688C9.58809 22.1335 9.543 22.1095 9.49395 22.0998C9.4449 22.0901 9.39409 22.0952 9.34792 22.1144C9.30174 22.1335 9.26229 22.166 9.23453 22.2076C9.20678 22.2491 9.19196 22.298 9.19196 22.348C9.19196 22.3813 9.19854 22.4143 9.21132 22.4451C9.22409 22.4758 9.24282 22.5038 9.26642 22.5273C9.29002 22.5508 9.31803 22.5694 9.34884 22.582C9.37965 22.5947 9.41266 22.6011 9.44596 22.601ZM9.44596 12.878C9.39597 12.878 9.34709 12.8928 9.30551 12.9206C9.26392 12.9483 9.2315 12.9878 9.21232 13.034C9.19314 13.0801 9.18807 13.131 9.19775 13.18C9.20744 13.2291 9.23143 13.2741 9.26672 13.3096C9.302 13.345 9.34698 13.3692 9.396 13.379C9.44501 13.3889 9.49584 13.384 9.54209 13.365C9.58834 13.346 9.62792 13.3138 9.65584 13.2723C9.68376 13.2308 9.69877 13.182 9.69896 13.132C9.6991 13.0987 9.69265 13.0657 9.67999 13.0349C9.66734 13.0041 9.64872 12.9761 9.62522 12.9525C9.60171 12.9289 9.57378 12.9101 9.54301 12.8974C9.51225 12.8846 9.47927 12.878 9.44596 12.878V12.878ZM8.52396 13.8C8.47397 13.8 8.42509 13.8148 8.38351 13.8426C8.34192 13.8703 8.3095 13.9098 8.29032 13.956C8.27114 14.0021 8.26607 14.053 8.27575 14.102C8.28544 14.1511 8.30943 14.1961 8.34472 14.2316C8.38 14.267 8.42499 14.2912 8.474 14.301C8.52301 14.3109 8.57384 14.306 8.62009 14.287C8.66634 14.268 8.70592 14.2358 8.73384 14.1943C8.76176 14.1528 8.77677 14.104 8.77696 14.054C8.7771 14.0207 8.77065 13.9877 8.75799 13.9569C8.74534 13.9261 8.72672 13.8981 8.70322 13.8745C8.67971 13.8509 8.65178 13.8321 8.62101 13.8194C8.59025 13.8066 8.55727 13.8 8.52396 13.8V13.8ZM7.60196 14.722C7.55197 14.722 7.50309 14.7368 7.46151 14.7646C7.41992 14.7923 7.3875 14.8318 7.36832 14.878C7.34914 14.9241 7.34407 14.975 7.35375 15.024C7.36344 15.0731 7.38743 15.1181 7.42271 15.1536C7.458 15.189 7.50298 15.2132 7.552 15.223C7.60101 15.2329 7.65184 15.228 7.69809 15.209C7.74434 15.19 7.78392 15.1578 7.81184 15.1163C7.83976 15.0748 7.85477 15.026 7.85496 14.976C7.85509 14.9427 7.84865 14.9097 7.83599 14.8789C7.82334 14.8481 7.80472 14.8201 7.78122 14.7965C7.75771 14.7729 7.72977 14.7541 7.69901 14.7414C7.66825 14.7286 7.63527 14.722 7.60196 14.722ZM6.67996 15.644C6.62997 15.644 6.58109 15.6588 6.53951 15.6866C6.49792 15.7143 6.4655 15.7538 6.44632 15.8C6.42714 15.8461 6.42207 15.897 6.43175 15.946C6.44144 15.9951 6.46543 16.0401 6.50071 16.0756C6.536 16.111 6.58098 16.1352 6.63 16.145C6.67901 16.1549 6.72984 16.15 6.77609 16.131C6.82234 16.112 6.86192 16.0798 6.88984 16.0383C6.91776 15.9968 6.93277 15.948 6.93296 15.898C6.9331 15.8647 6.92665 15.8317 6.91399 15.8009C6.90134 15.7701 6.88272 15.7421 6.85922 15.7185C6.83571 15.6949 6.80777 15.6761 6.77701 15.6634C6.74625 15.6506 6.71327 15.644 6.67996 15.644ZM5.75796 16.565C5.70797 16.565 5.65909 16.5798 5.61751 16.6076C5.57592 16.6353 5.5435 16.6748 5.52432 16.721C5.50514 16.7671 5.50007 16.818 5.50975 16.867C5.51943 16.9161 5.54343 16.9611 5.57871 16.9966C5.614 17.032 5.65898 17.0562 5.708 17.066C5.75701 17.0759 5.80784 17.071 5.85409 17.052C5.90034 17.033 5.93992 17.0008 5.96784 16.9593C5.99576 16.9178 6.01077 16.869 6.01096 16.819V16.819C6.0111 16.7857 6.00465 16.7527 5.99199 16.7219C5.97934 16.6911 5.96072 16.6631 5.93722 16.6395C5.91371 16.6159 5.88577 16.5971 5.85501 16.5844C5.82425 16.5716 5.79127 16.565 5.75796 16.565ZM4.83596 17.487C4.78597 17.487 4.73709 17.5018 4.69551 17.5296C4.65392 17.5573 4.6215 17.5968 4.60232 17.643C4.58314 17.6891 4.57807 17.74 4.58775 17.789C4.59744 17.8381 4.62143 17.8831 4.65671 17.9186C4.692 17.954 4.73698 17.9782 4.786 17.988C4.83501 17.9979 4.88584 17.993 4.93209 17.974C4.97834 17.955 5.01792 17.9228 5.04584 17.8813C5.07376 17.8398 5.08877 17.791 5.08896 17.741C5.0891 17.7077 5.08265 17.6747 5.06999 17.6439C5.05734 17.6131 5.03872 17.5851 5.01522 17.5615C4.99171 17.5379 4.96377 17.5191 4.93301 17.5064C4.90225 17.4936 4.86927 17.487 4.83596 17.487ZM3.90996 18.4C3.85997 18.4 3.81109 18.4148 3.76951 18.4426C3.72793 18.4703 3.6955 18.5098 3.67632 18.556C3.65714 18.6021 3.65207 18.653 3.66175 18.702C3.67144 18.7511 3.69543 18.7961 3.73072 18.8316C3.766 18.867 3.81098 18.8912 3.86 18.901C3.90901 18.9109 3.95984 18.906 4.00609 18.887C4.05234 18.868 4.09192 18.8358 4.11984 18.7943C4.14776 18.7528 4.16277 18.704 4.16296 18.654V18.654C4.1631 18.6207 4.15665 18.5877 4.14399 18.5569C4.13134 18.5261 4.11272 18.4981 4.08922 18.4745C4.06571 18.4509 4.03777 18.4321 4.00701 18.4194C3.97625 18.4066 3.94327 18.4 3.90996 18.4ZM2.98796 19.322C2.93797 19.322 2.88909 19.3368 2.84751 19.3646C2.80592 19.3923 2.7735 19.4318 2.75432 19.478C2.73514 19.5241 2.73007 19.575 2.73975 19.624C2.74944 19.6731 2.77343 19.7181 2.80871 19.7536C2.844 19.789 2.88898 19.8132 2.938 19.823C2.98701 19.8329 3.03784 19.828 3.08409 19.809C3.13034 19.79 3.16992 19.7578 3.19784 19.7163C3.22576 19.6748 3.24077 19.626 3.24096 19.576V19.576C3.2411 19.5427 3.23465 19.5097 3.22199 19.4789C3.20934 19.4481 3.19072 19.4201 3.16722 19.3965C3.14371 19.3729 3.11577 19.3541 3.08501 19.3414C3.05425 19.3286 3.02127 19.322 2.98796 19.322V19.322ZM9.43996 14.716C9.38997 14.716 9.34109 14.7308 9.29951 14.7586C9.25793 14.7863 9.2255 14.8258 9.20632 14.872C9.18714 14.9181 9.18207 14.969 9.19175 15.018C9.20144 15.0671 9.22543 15.1121 9.26072 15.1476C9.296 15.183 9.34098 15.2072 9.39 15.217C9.43901 15.2269 9.48985 15.222 9.53609 15.203C9.58234 15.184 9.62192 15.1518 9.64984 15.1103C9.67776 15.0688 9.69277 15.02 9.69296 14.97V14.97C9.6931 14.9367 9.68665 14.9037 9.67399 14.8729C9.66134 14.8421 9.64272 14.8141 9.61922 14.7905C9.59571 14.7669 9.56777 14.7481 9.53701 14.7354C9.50625 14.7226 9.47327 14.716 9.43996 14.716V14.716ZM8.51796 15.638C8.46797 15.638 8.41909 15.6528 8.37751 15.6806C8.33593 15.7083 8.3035 15.7478 8.28432 15.794C8.26514 15.8401 8.26007 15.891 8.26975 15.94C8.27944 15.9891 8.30343 16.0341 8.33872 16.0696C8.374 16.105 8.41898 16.1292 8.468 16.139C8.51701 16.1489 8.56785 16.144 8.61409 16.125C8.66034 16.106 8.69992 16.0738 8.72784 16.0323C8.75576 15.9908 8.77077 15.942 8.77096 15.892C8.7711 15.8587 8.76465 15.8257 8.75199 15.7949C8.73934 15.7641 8.72072 15.7361 8.69722 15.7125C8.67371 15.6889 8.64577 15.6701 8.61501 15.6574C8.58425 15.6446 8.55127 15.638 8.51796 15.638V15.638ZM7.59596 16.56C7.54597 16.56 7.49709 16.5748 7.45551 16.6026C7.41393 16.6303 7.3815 16.6698 7.36232 16.716C7.34314 16.7621 7.33807 16.813 7.34775 16.862C7.35744 16.9111 7.38143 16.9561 7.41671 16.9916C7.452 17.027 7.49698 17.0512 7.546 17.061C7.59501 17.0709 7.64584 17.066 7.69209 17.047C7.73834 17.028 7.77792 16.9958 7.80584 16.9543C7.83376 16.9128 7.84877 16.864 7.84896 16.814C7.84909 16.7807 7.84265 16.7477 7.82999 16.7169C7.81734 16.6861 7.79872 16.6581 7.77522 16.6345C7.75171 16.6109 7.72377 16.5921 7.69301 16.5794C7.66225 16.5666 7.62927 16.56 7.59596 16.56V16.56ZM6.67396 17.482C6.62397 17.482 6.57509 17.4968 6.53351 17.5246C6.49192 17.5523 6.4595 17.5918 6.44032 17.638C6.42114 17.6841 6.41607 17.735 6.42575 17.784C6.43544 17.8331 6.45943 17.8781 6.49471 17.9136C6.53 17.949 6.57498 17.9732 6.624 17.983C6.67301 17.9929 6.72384 17.988 6.77009 17.969C6.81634 17.95 6.85592 17.9178 6.88384 17.8763C6.91176 17.8348 6.92677 17.786 6.92696 17.736C6.92709 17.7027 6.92065 17.6697 6.90799 17.6389C6.89534 17.6081 6.87672 17.5801 6.85322 17.5565C6.82971 17.5329 6.80177 17.5141 6.77101 17.5014C6.74025 17.4886 6.70727 17.482 6.67396 17.482ZM5.75196 18.403C5.70197 18.403 5.65309 18.4178 5.61151 18.4456C5.56992 18.4733 5.5375 18.5128 5.51832 18.559C5.49914 18.6051 5.49407 18.656 5.50375 18.705C5.51344 18.7541 5.53743 18.7991 5.57271 18.8346C5.608 18.87 5.65298 18.8942 5.702 18.904C5.75101 18.9139 5.80184 18.909 5.84809 18.89C5.89434 18.871 5.93392 18.8388 5.96184 18.7973C5.98976 18.7558 6.00477 18.707 6.00496 18.657V18.657C6.0051 18.6237 5.99865 18.5907 5.98599 18.5599C5.97334 18.5291 5.95472 18.5011 5.93122 18.4775C5.90771 18.4539 5.87977 18.4351 5.84901 18.4224C5.81825 18.4096 5.78527 18.403 5.75196 18.403ZM4.82996 19.325C4.77997 19.325 4.73109 19.3398 4.68951 19.3676C4.64792 19.3953 4.6155 19.4348 4.59632 19.481C4.57714 19.5271 4.57207 19.578 4.58175 19.627C4.59144 19.6761 4.61543 19.7211 4.65071 19.7566C4.686 19.792 4.73098 19.8162 4.78 19.826C4.82901 19.8359 4.87984 19.831 4.92609 19.812C4.97234 19.793 5.01192 19.7608 5.03984 19.7193C5.06776 19.6778 5.08277 19.629 5.08296 19.579C5.0831 19.5457 5.07665 19.5127 5.06399 19.4819C5.05134 19.4511 5.03272 19.4231 5.00922 19.3995C4.98571 19.3759 4.95777 19.3571 4.92701 19.3444C4.89625 19.3316 4.86327 19.325 4.82996 19.325ZM9.43996 16.56C9.38997 16.56 9.34109 16.5748 9.29951 16.6026C9.25793 16.6303 9.2255 16.6698 9.20632 16.716C9.18714 16.7621 9.18207 16.813 9.19175 16.862C9.20144 16.9111 9.22543 16.9561 9.26072 16.9916C9.296 17.027 9.34098 17.0512 9.39 17.061C9.43901 17.0709 9.48985 17.066 9.53609 17.047C9.58234 17.028 9.62192 16.9958 9.64984 16.9543C9.67776 16.9128 9.69277 16.864 9.69296 16.814V16.814C9.6931 16.7807 9.68665 16.7477 9.67399 16.7169C9.66134 16.6861 9.64272 16.6581 9.61922 16.6345C9.59571 16.6109 9.56777 16.5921 9.53701 16.5794C9.50625 16.5666 9.47327 16.56 9.43996 16.56V16.56ZM8.51796 17.482C8.46797 17.482 8.41909 17.4968 8.37751 17.5246C8.33593 17.5523 8.3035 17.5918 8.28432 17.638C8.26514 17.6841 8.26007 17.735 8.26975 17.784C8.27944 17.8331 8.30343 17.8781 8.33872 17.9136C8.374 17.949 8.41898 17.9732 8.468 17.983C8.51701 17.9929 8.56785 17.988 8.61409 17.969C8.66034 17.95 8.69992 17.9178 8.72784 17.8763C8.75576 17.8348 8.77077 17.786 8.77096 17.736C8.7711 17.7027 8.76465 17.6697 8.75199 17.6389C8.73934 17.6081 8.72072 17.5801 8.69722 17.5565C8.67371 17.5329 8.64577 17.5141 8.61501 17.5014C8.58425 17.4886 8.55127 17.482 8.51796 17.482ZM7.59996 18.4C7.54997 18.4 7.50109 18.4148 7.45951 18.4426C7.41792 18.4703 7.3855 18.5098 7.36632 18.556C7.34714 18.6021 7.34207 18.653 7.35175 18.702C7.36143 18.7511 7.38543 18.7961 7.42071 18.8316C7.456 18.867 7.50098 18.8912 7.55 18.901C7.59901 18.9109 7.64984 18.906 7.69609 18.887C7.74234 18.868 7.78192 18.8358 7.80984 18.7943C7.83776 18.7528 7.85277 18.704 7.85296 18.654C7.8531 18.6207 7.84665 18.5877 7.83399 18.5569C7.82134 18.5261 7.80272 18.4981 7.77922 18.4745C7.75571 18.4509 7.72777 18.4321 7.69701 18.4194C7.66625 18.4066 7.63327 18.4 7.59996 18.4ZM6.67796 19.321C6.62797 19.321 6.57909 19.3358 6.53751 19.3636C6.49592 19.3913 6.4635 19.4308 6.44432 19.477C6.42514 19.5231 6.42007 19.574 6.42975 19.623C6.43944 19.6721 6.46343 19.7171 6.49871 19.7526C6.534 19.788 6.57898 19.8122 6.628 19.822C6.67701 19.8319 6.72784 19.827 6.77409 19.808C6.82034 19.789 6.85992 19.7568 6.88784 19.7153C6.91576 19.6738 6.93077 19.625 6.93096 19.575C6.9311 19.5417 6.92465 19.5087 6.91199 19.4779C6.89934 19.4471 6.88072 19.4191 6.85722 19.3955C6.83371 19.3719 6.80577 19.3531 6.77501 19.3404C6.74425 19.3276 6.71127 19.321 6.67796 19.321ZM9.43996 18.4C9.38997 18.4 9.34109 18.4148 9.29951 18.4426C9.25793 18.4703 9.2255 18.5098 9.20632 18.556C9.18714 18.6021 9.18207 18.653 9.19175 18.702C9.20144 18.7511 9.22543 18.7961 9.26072 18.8316C9.296 18.867 9.34098 18.8912 9.39 18.901C9.43901 18.9109 9.48985 18.906 9.53609 18.887C9.58234 18.868 9.62192 18.8358 9.64984 18.7943C9.67776 18.7528 9.69277 18.704 9.69296 18.654V18.654C9.6931 18.6207 9.68665 18.5877 9.67399 18.5569C9.66134 18.5261 9.64272 18.4981 9.61922 18.4745C9.59571 18.4509 9.56777 18.4321 9.53701 18.4194C9.50625 18.4066 9.47327 18.4 9.43996 18.4ZM8.51796 19.322C8.46797 19.322 8.41909 19.3368 8.37751 19.3646C8.33593 19.3923 8.3035 19.4318 8.28432 19.478C8.26514 19.5241 8.26007 19.575 8.26975 19.624C8.27944 19.6731 8.30343 19.7181 8.33872 19.7536C8.374 19.789 8.41898 19.8132 8.468 19.823C8.51701 19.8329 8.56785 19.828 8.61409 19.809C8.66034 19.79 8.69992 19.7578 8.72784 19.7163C8.75576 19.6748 8.77077 19.626 8.77096 19.576C8.7711 19.5427 8.76465 19.5097 8.75199 19.4789C8.73934 19.4481 8.72072 19.4201 8.69722 19.3965C8.67371 19.3729 8.64577 19.3541 8.61501 19.3414C8.58425 19.3286 8.55127 19.322 8.51796 19.322ZM17.734 19.827C17.784 19.827 17.8329 19.8122 17.8745 19.7844C17.9161 19.7566 17.9486 19.7171 17.9677 19.6708C17.9869 19.6246 17.9919 19.5737 17.9821 19.5247C17.9723 19.4756 17.9482 19.4305 17.9129 19.3951C17.8775 19.3597 17.8324 19.3356 17.7833 19.3259C17.7342 19.3161 17.6834 19.3211 17.6371 19.3403C17.5909 19.3594 17.5514 19.3918 17.5236 19.4335C17.4958 19.4751 17.481 19.524 17.481 19.574C17.481 19.6411 17.5076 19.7055 17.5551 19.7529C17.6025 19.8004 17.6669 19.827 17.734 19.827ZM16.812 18.905C16.862 18.905 16.9108 18.8902 16.9524 18.8624C16.994 18.8347 17.0264 18.7952 17.0456 18.7491C17.0648 18.7029 17.0699 18.6521 17.0602 18.603C17.0505 18.554 17.0265 18.5089 16.9912 18.4735C16.9559 18.438 16.9109 18.4139 16.8619 18.404C16.8129 18.3941 16.7621 18.399 16.7158 18.418C16.6696 18.437 16.63 18.4693 16.6021 18.5107C16.5742 18.5522 16.5592 18.601 16.559 18.651V18.651C16.559 18.7181 16.5856 18.7825 16.6331 18.8299C16.6805 18.8774 16.7449 18.904 16.812 18.904V18.905ZM15.89 17.983C15.94 17.983 15.9889 17.9682 16.0305 17.9404C16.0721 17.9126 16.1046 17.8731 16.1237 17.8268C16.1429 17.7806 16.1479 17.7297 16.1381 17.6807C16.1283 17.6316 16.1042 17.5865 16.0689 17.5511C16.0335 17.5157 15.9884 17.4916 15.9393 17.4819C15.8902 17.4721 15.8394 17.4771 15.7931 17.4963C15.7469 17.5154 15.7074 17.5478 15.6796 17.5895C15.6518 17.6311 15.637 17.68 15.637 17.73C15.637 17.7971 15.6636 17.8615 15.7111 17.9089C15.7585 17.9564 15.8229 17.983 15.89 17.983ZM14.968 17.061C15.018 17.061 15.0668 17.0462 15.1084 17.0184C15.15 16.9907 15.1824 16.9512 15.2016 16.9051C15.2208 16.8589 15.2259 16.8081 15.2162 16.759C15.2065 16.71 15.1825 16.6649 15.1472 16.6295C15.1119 16.594 15.0669 16.5699 15.0179 16.56C14.9689 16.5501 14.9181 16.555 14.8718 16.574C14.8256 16.593 14.786 16.6253 14.7581 16.6667C14.7302 16.7082 14.7152 16.757 14.715 16.807C14.7148 16.8403 14.7213 16.8733 14.7339 16.9041C14.7466 16.9349 14.7652 16.963 14.7887 16.9866C14.8122 17.0102 14.8402 17.0289 14.8709 17.0417C14.9017 17.0544 14.9347 17.061 14.968 17.061V17.061ZM14.046 16.139C14.096 16.139 14.1449 16.1242 14.1865 16.0964C14.2281 16.0686 14.2606 16.0291 14.2797 15.9828C14.2989 15.9366 14.3039 15.8857 14.2941 15.8367C14.2843 15.7876 14.2602 15.7425 14.2249 15.7071C14.1895 15.6717 14.1444 15.6476 14.0953 15.6379C14.0462 15.6281 13.9954 15.6331 13.9491 15.6523C13.9029 15.6714 13.8634 15.7038 13.8356 15.7455C13.8078 15.7871 13.793 15.836 13.793 15.886C13.793 15.9531 13.8196 16.0175 13.8671 16.0649C13.9145 16.1124 13.9789 16.139 14.046 16.139ZM13.124 15.217C13.174 15.217 13.2229 15.2022 13.2645 15.1744C13.3061 15.1466 13.3386 15.1071 13.3577 15.0608C13.3769 15.0146 13.3819 14.9637 13.3721 14.9147C13.3623 14.8656 13.3382 14.8205 13.3029 14.7851C13.2675 14.7497 13.2224 14.7256 13.1733 14.7159C13.1242 14.7061 13.0734 14.7111 13.0271 14.7303C12.9809 14.7494 12.9414 14.7818 12.9136 14.8235C12.8858 14.8651 12.871 14.914 12.871 14.964C12.871 15.0311 12.8976 15.0955 12.9451 15.1429C12.9925 15.1904 13.0569 15.217 13.124 15.217ZM12.2 14.3C12.25 14.3 12.2988 14.2852 12.3404 14.2574C12.382 14.2297 12.4144 14.1902 12.4336 14.1441C12.4528 14.0979 12.4579 14.0471 12.4482 13.998C12.4385 13.949 12.4145 13.9039 12.3792 13.8685C12.3439 13.833 12.2989 13.8089 12.2499 13.799C12.2009 13.7891 12.1501 13.794 12.1038 13.813C12.0576 13.832 12.018 13.8643 11.9901 13.9057C11.9622 13.9472 11.9472 13.996 11.947 14.046C11.9468 14.0793 11.9533 14.1123 11.9659 14.1431C11.9786 14.174 11.9972 14.202 12.0207 14.2256C12.0442 14.2492 12.0722 14.2679 12.1029 14.2807C12.1337 14.2934 12.1667 14.3 12.2 14.3ZM11.278 13.378C11.328 13.378 11.3769 13.3632 11.4185 13.3354C11.4601 13.3076 11.4926 13.2681 11.5117 13.2218C11.5309 13.1756 11.5359 13.1247 11.5261 13.0757C11.5163 13.0266 11.4922 12.9815 11.4569 12.9461C11.4215 12.9107 11.3764 12.8866 11.3273 12.8769C11.2782 12.8671 11.2274 12.8721 11.1811 12.8913C11.1349 12.9104 11.0954 12.9428 11.0676 12.9845C11.0398 13.0261 11.025 13.075 11.025 13.125C11.025 13.1921 11.0516 13.2565 11.0991 13.3039C11.1465 13.3514 11.2109 13.378 11.278 13.378V13.378ZM15.887 19.323C15.837 19.3232 15.7882 19.3382 15.7467 19.3661C15.7052 19.3941 15.6729 19.4336 15.6539 19.4799C15.6349 19.5261 15.6301 19.577 15.6399 19.626C15.6498 19.675 15.674 19.72 15.7094 19.7553C15.7448 19.7905 15.7899 19.8145 15.839 19.8242C15.888 19.8339 15.9388 19.8288 15.985 19.8097C16.0312 19.7905 16.0706 19.7581 16.0984 19.7165C16.1262 19.6749 16.141 19.626 16.141 19.576C16.141 19.5427 16.1344 19.5097 16.1216 19.479C16.1088 19.4482 16.0901 19.4203 16.0665 19.3968C16.0429 19.3733 16.0149 19.3546 15.9841 19.342C15.9533 19.3293 15.9203 19.3229 15.887 19.323ZM14.97 18.4C14.92 18.4002 14.8712 18.4152 14.8297 18.4431C14.7882 18.4711 14.7559 18.5106 14.7369 18.5569C14.7179 18.6031 14.7131 18.654 14.7229 18.703C14.7328 18.752 14.757 18.797 14.7924 18.8323C14.8278 18.8675 14.8729 18.8915 14.922 18.9012C14.971 18.9109 15.0218 18.9058 15.068 18.8867C15.1142 18.8675 15.1536 18.8351 15.1814 18.7935C15.2091 18.7519 15.224 18.703 15.224 18.653C15.224 18.6197 15.2174 18.5867 15.2046 18.556C15.1918 18.5252 15.1731 18.4973 15.1495 18.4738C15.1259 18.4503 15.0979 18.4316 15.0671 18.419C15.0363 18.4063 15.0033 18.3999 14.97 18.4V18.4ZM14.048 17.478C13.998 17.4782 13.9492 17.4932 13.9077 17.5211C13.8662 17.5491 13.8339 17.5886 13.8149 17.6349C13.7959 17.6811 13.7911 17.732 13.8009 17.781C13.8108 17.83 13.835 17.875 13.8704 17.9103C13.9058 17.9455 13.9509 17.9695 14 17.9792C14.049 17.9889 14.0998 17.9838 14.146 17.9647C14.1922 17.9455 14.2316 17.9131 14.2594 17.8715C14.2871 17.8299 14.302 17.781 14.302 17.731C14.302 17.6977 14.2954 17.6647 14.2826 17.634C14.2698 17.6032 14.2511 17.5753 14.2275 17.5518C14.2039 17.5283 14.1759 17.5096 14.1451 17.497C14.1143 17.4843 14.0813 17.4779 14.048 17.478ZM13.126 16.556C13.076 16.5562 13.0272 16.5712 12.9857 16.5991C12.9442 16.6271 12.9119 16.6666 12.8929 16.7129C12.8739 16.7591 12.8691 16.81 12.8789 16.859C12.8888 16.908 12.913 16.953 12.9484 16.9883C12.9838 17.0235 13.0289 17.0475 13.078 17.0572C13.127 17.0669 13.1778 17.0618 13.224 17.0427C13.2702 17.0235 13.3096 16.9911 13.3374 16.9495C13.3651 16.9079 13.38 16.859 13.38 16.809C13.38 16.7757 13.3734 16.7427 13.3606 16.712C13.3478 16.6812 13.3291 16.6533 13.3055 16.6298C13.2819 16.6063 13.2539 16.5876 13.2231 16.575C13.1923 16.5623 13.1593 16.5559 13.126 16.556V16.556ZM12.204 15.634C12.154 15.6342 12.1052 15.6492 12.0637 15.6771C12.0222 15.7051 11.9899 15.7446 11.9709 15.7909C11.9519 15.8371 11.9471 15.888 11.9569 15.937C11.9668 15.986 11.991 16.031 12.0264 16.0663C12.0618 16.1015 12.1069 16.1255 12.156 16.1352C12.205 16.1449 12.2558 16.1398 12.302 16.1207C12.3482 16.1015 12.3876 16.0691 12.4154 16.0275C12.4431 15.9859 12.458 15.937 12.458 15.887C12.458 15.8537 12.4514 15.8207 12.4386 15.79C12.4258 15.7592 12.4071 15.7313 12.3835 15.7078C12.3599 15.6843 12.3319 15.6656 12.3011 15.653C12.2703 15.6403 12.2373 15.6339 12.204 15.634V15.634ZM11.282 14.712C11.232 14.7122 11.1832 14.7272 11.1417 14.7551C11.1002 14.7831 11.0679 14.8226 11.0489 14.8689C11.0299 14.9151 11.0251 14.966 11.0349 15.015C11.0448 15.064 11.069 15.109 11.1044 15.1443C11.1398 15.1795 11.1849 15.2035 11.234 15.2132C11.283 15.2229 11.3338 15.2178 11.38 15.1987C11.4262 15.1795 11.4656 15.1471 11.4934 15.1055C11.5211 15.0639 11.536 15.015 11.536 14.965C11.536 14.9317 11.5294 14.8987 11.5166 14.868C11.5038 14.8372 11.4851 14.8093 11.4615 14.7858C11.4379 14.7623 11.4099 14.7436 11.3791 14.731C11.3483 14.7183 11.3153 14.7119 11.282 14.712ZM14.046 19.32C13.996 19.3202 13.9472 19.3352 13.9057 19.3631C13.8642 19.3911 13.8319 19.4306 13.8129 19.4769C13.7939 19.5231 13.7891 19.574 13.7989 19.623C13.8088 19.672 13.833 19.717 13.8684 19.7523C13.9038 19.7875 13.9489 19.8115 13.998 19.8212C14.047 19.8309 14.0978 19.8258 14.144 19.8067C14.1902 19.7875 14.2296 19.7551 14.2574 19.7135C14.2851 19.6719 14.3 19.623 14.3 19.573C14.3 19.5397 14.2934 19.5067 14.2806 19.476C14.2678 19.4452 14.2491 19.4173 14.2255 19.3938C14.2019 19.3703 14.1739 19.3516 14.1431 19.339C14.1123 19.3263 14.0793 19.3199 14.046 19.32ZM13.124 18.398C13.074 18.3982 13.0252 18.4132 12.9837 18.4411C12.9422 18.4691 12.9099 18.5086 12.8909 18.5549C12.8719 18.6011 12.8671 18.652 12.8769 18.701C12.8868 18.75 12.911 18.795 12.9464 18.8303C12.9818 18.8655 13.0269 18.8895 13.076 18.8992C13.125 18.9089 13.1758 18.9038 13.222 18.8847C13.2682 18.8655 13.3076 18.8331 13.3354 18.7915C13.3631 18.7499 13.378 18.701 13.378 18.651C13.378 18.6177 13.3714 18.5847 13.3586 18.554C13.3458 18.5232 13.3271 18.4953 13.3035 18.4718C13.2799 18.4483 13.2519 18.4296 13.2211 18.417C13.1903 18.4043 13.1573 18.3979 13.124 18.398V18.398ZM12.202 17.476C12.152 17.4762 12.1032 17.4912 12.0617 17.5191C12.0202 17.5471 11.9879 17.5866 11.9689 17.6329C11.9499 17.6791 11.9451 17.73 11.9549 17.779C11.9648 17.828 11.989 17.873 12.0244 17.9083C12.0598 17.9435 12.1049 17.9675 12.154 17.9772C12.203 17.9869 12.2538 17.9818 12.3 17.9627C12.3462 17.9435 12.3856 17.9111 12.4134 17.8695C12.4412 17.8279 12.456 17.779 12.456 17.729C12.456 17.6957 12.4494 17.6627 12.4366 17.632C12.4238 17.6012 12.4051 17.5733 12.3815 17.5498C12.3579 17.5263 12.3299 17.5076 12.2991 17.495C12.2683 17.4823 12.2353 17.4759 12.202 17.476V17.476ZM11.28 16.554C11.23 16.5542 11.1812 16.5692 11.1397 16.5971C11.0982 16.6251 11.0659 16.6646 11.0469 16.7109C11.0279 16.7571 11.0231 16.808 11.0329 16.857C11.0428 16.906 11.067 16.951 11.1024 16.9863C11.1378 17.0215 11.1829 17.0455 11.232 17.0552C11.281 17.0649 11.3318 17.0598 11.378 17.0407C11.4242 17.0215 11.4636 16.9891 11.4914 16.9475C11.5192 16.9059 11.534 16.857 11.534 16.807C11.534 16.7737 11.5274 16.7407 11.5146 16.71C11.5018 16.6792 11.4831 16.6513 11.4595 16.6278C11.4359 16.6043 11.4079 16.5856 11.3771 16.573C11.3463 16.5603 11.3133 16.5539 11.28 16.554ZM12.2 19.826C12.25 19.826 12.2989 19.8112 12.3405 19.7834C12.3821 19.7556 12.4146 19.7161 12.4337 19.6698C12.4529 19.6236 12.4579 19.5727 12.4481 19.5237C12.4383 19.4746 12.4142 19.4295 12.3789 19.3941C12.3435 19.3587 12.2984 19.3346 12.2493 19.3249C12.2002 19.3151 12.1494 19.3201 12.1031 19.3393C12.0569 19.3584 12.0174 19.3908 11.9896 19.4325C11.9618 19.4741 11.947 19.523 11.947 19.573C11.947 19.6401 11.9736 19.7045 12.0211 19.7519C12.0685 19.7994 12.1329 19.826 12.2 19.826ZM11.278 18.904C11.328 18.904 11.3769 18.8892 11.4185 18.8614C11.4601 18.8336 11.4926 18.7941 11.5117 18.7478C11.5309 18.7016 11.5359 18.6507 11.5261 18.6017C11.5163 18.5526 11.4922 18.5075 11.4569 18.4721C11.4215 18.4367 11.3764 18.4126 11.3273 18.4029C11.2782 18.3931 11.2274 18.3981 11.1811 18.4173C11.1349 18.4364 11.0954 18.4688 11.0676 18.5105C11.0398 18.5521 11.025 18.601 11.025 18.651C11.025 18.7181 11.0516 18.7825 11.0991 18.8299C11.1465 18.8774 11.2109 18.904 11.278 18.904V18.904ZM17.73 29.964C17.78 29.964 17.8288 29.9492 17.8704 29.9214C17.912 29.8937 17.9444 29.8542 17.9636 29.8081C17.9828 29.7619 17.9879 29.7111 17.9782 29.662C17.9685 29.613 17.9445 29.5679 17.9092 29.5325C17.8739 29.497 17.8289 29.4729 17.7799 29.463C17.7309 29.4531 17.6801 29.458 17.6338 29.477C17.5876 29.496 17.548 29.5283 17.5201 29.5697C17.4922 29.6112 17.4772 29.66 17.477 29.71V29.71C17.477 29.7771 17.5036 29.8415 17.5511 29.8889C17.5985 29.9364 17.6629 29.963 17.73 29.963V29.964ZM16.808 29.042C16.858 29.042 16.9068 29.0272 16.9484 28.9994C16.99 28.9717 17.0224 28.9322 17.0416 28.8861C17.0608 28.8399 17.0659 28.7891 17.0562 28.74C17.0465 28.691 17.0225 28.6459 16.9872 28.6105C16.9519 28.575 16.9069 28.5509 16.8579 28.541C16.8089 28.5311 16.7581 28.536 16.7118 28.555C16.6656 28.574 16.626 28.6063 16.5981 28.6477C16.5702 28.6892 16.5552 28.738 16.555 28.788V28.788C16.555 28.8212 16.5615 28.8541 16.5742 28.8848C16.5869 28.9155 16.6056 28.9434 16.6291 28.9669C16.6526 28.9904 16.6805 29.009 16.7111 29.0218C16.7418 29.0345 16.7747 29.041 16.808 29.041V29.042ZM15.886 28.12C15.936 28.12 15.9848 28.1052 16.0264 28.0774C16.068 28.0497 16.1004 28.0102 16.1196 27.9641C16.1388 27.9179 16.1439 27.8671 16.1342 27.818C16.1245 27.769 16.1005 27.7239 16.0652 27.6885C16.0299 27.653 15.9849 27.6289 15.9359 27.619C15.8869 27.6091 15.8361 27.614 15.7898 27.633C15.7436 27.652 15.704 27.6843 15.6761 27.7257C15.6482 27.7672 15.6332 27.816 15.633 27.866C15.633 27.9331 15.6596 27.9975 15.7071 28.0449C15.7545 28.0924 15.8189 28.119 15.886 28.119V28.12ZM14.964 27.198C15.014 27.198 15.0629 27.1832 15.1045 27.1554C15.1461 27.1276 15.1786 27.0881 15.1977 27.0418C15.2169 26.9956 15.2219 26.9447 15.2121 26.8957C15.2023 26.8466 15.1782 26.8015 15.1429 26.7661C15.1075 26.7307 15.0624 26.7066 15.0133 26.6969C14.9642 26.6871 14.9134 26.6921 14.8671 26.7113C14.8209 26.7304 14.7814 26.7628 14.7536 26.8045C14.7258 26.8461 14.711 26.895 14.711 26.945C14.711 27.0121 14.7376 27.0765 14.7851 27.1239C14.8325 27.1714 14.8969 27.198 14.964 27.198ZM14.042 26.276C14.092 26.276 14.1408 26.2612 14.1824 26.2334C14.224 26.2057 14.2564 26.1662 14.2756 26.1201C14.2948 26.0739 14.2999 26.0231 14.2902 25.974C14.2805 25.925 14.2565 25.8799 14.2212 25.8445C14.1859 25.809 14.1409 25.7849 14.0919 25.775C14.0429 25.7651 13.9921 25.77 13.9458 25.789C13.8996 25.808 13.86 25.8403 13.8321 25.8817C13.8042 25.9232 13.7892 25.972 13.789 26.022C13.7888 26.0553 13.7953 26.0883 13.8079 26.1191C13.8206 26.1499 13.8392 26.178 13.8627 26.2016C13.8862 26.2252 13.9142 26.2439 13.9449 26.2567C13.9757 26.2694 14.0087 26.276 14.042 26.276ZM13.12 25.354C13.17 25.354 13.2189 25.3392 13.2605 25.3114C13.3021 25.2836 13.3346 25.2441 13.3537 25.1978C13.3729 25.1516 13.3779 25.1007 13.3681 25.0517C13.3583 25.0026 13.3342 24.9575 13.2989 24.9221C13.2635 24.8867 13.2184 24.8626 13.1693 24.8529C13.1202 24.8431 13.0694 24.8481 13.0231 24.8673C12.9769 24.8864 12.9374 24.9188 12.9096 24.9605C12.8818 25.0021 12.867 25.051 12.867 25.101C12.867 25.1681 12.8936 25.2325 12.9411 25.2799C12.9885 25.3274 13.0529 25.354 13.12 25.354V25.354ZM12.2 24.44C12.25 24.44 12.2989 24.4252 12.3405 24.3974C12.3821 24.3696 12.4146 24.3301 12.4337 24.2838C12.4529 24.2376 12.4579 24.1867 12.4481 24.1377C12.4383 24.0886 12.4142 24.0435 12.3789 24.0081C12.3435 23.9727 12.2984 23.9486 12.2493 23.9389C12.2002 23.9291 12.1494 23.9341 12.1031 23.9533C12.0569 23.9724 12.0174 24.0048 11.9896 24.0465C11.9618 24.0881 11.947 24.137 11.947 24.187C11.947 24.2541 11.9736 24.3185 12.0211 24.3659C12.0685 24.4134 12.1329 24.44 12.2 24.44ZM11.278 23.518C11.328 23.518 11.3769 23.5032 11.4185 23.4754C11.4601 23.4476 11.4926 23.4081 11.5117 23.3618C11.5309 23.3156 11.5359 23.2647 11.5261 23.2157C11.5163 23.1666 11.4922 23.1215 11.4569 23.0861C11.4215 23.0507 11.3764 23.0266 11.3273 23.0169C11.2782 23.0071 11.2274 23.0121 11.1811 23.0313C11.1349 23.0504 11.0954 23.0828 11.0676 23.1245C11.0398 23.1661 11.025 23.215 11.025 23.265C11.025 23.3321 11.0516 23.3965 11.0991 23.4439C11.1465 23.4914 11.2109 23.518 11.278 23.518V23.518ZM15.888 29.463C15.838 29.4632 15.7892 29.4782 15.7477 29.5061C15.7062 29.5341 15.6739 29.5736 15.6549 29.6199C15.6359 29.6661 15.6311 29.717 15.6409 29.766C15.6508 29.815 15.675 29.86 15.7104 29.8953C15.7458 29.9305 15.7909 29.9545 15.84 29.9642C15.889 29.9739 15.9398 29.9688 15.986 29.9497C16.0322 29.9305 16.0716 29.8981 16.0994 29.8565C16.1271 29.8149 16.142 29.766 16.142 29.716C16.142 29.6827 16.1354 29.6497 16.1226 29.619C16.1098 29.5882 16.0911 29.5603 16.0675 29.5368C16.0439 29.5133 16.0159 29.4946 15.9851 29.482C15.9543 29.4693 15.9213 29.4629 15.888 29.463V29.463ZM14.966 28.541C14.916 28.5412 14.8672 28.5562 14.8257 28.5841C14.7842 28.6121 14.7519 28.6516 14.7329 28.6979C14.7139 28.7441 14.7091 28.795 14.7189 28.844C14.7288 28.893 14.753 28.938 14.7884 28.9733C14.8238 29.0085 14.8689 29.0325 14.918 29.0422C14.967 29.0519 15.0178 29.0468 15.064 29.0277C15.1102 29.0085 15.1496 28.9761 15.1774 28.9345C15.2051 28.8929 15.22 28.844 15.22 28.794C15.22 28.7607 15.2134 28.7277 15.2006 28.697C15.1878 28.6662 15.1691 28.6383 15.1455 28.6148C15.1219 28.5913 15.0939 28.5726 15.0631 28.56C15.0323 28.5473 14.9993 28.5409 14.966 28.541V28.541ZM14.044 27.619C13.994 27.6192 13.9452 27.6342 13.9037 27.6621C13.8622 27.6901 13.8299 27.7296 13.8109 27.7759C13.7919 27.8221 13.7871 27.873 13.7969 27.922C13.8068 27.971 13.831 28.016 13.8664 28.0513C13.9018 28.0865 13.9469 28.1105 13.996 28.1202C14.045 28.1299 14.0958 28.1248 14.142 28.1057C14.1882 28.0865 14.2276 28.0541 14.2554 28.0125C14.2832 27.9709 14.298 27.922 14.298 27.872C14.298 27.8387 14.2914 27.8057 14.2786 27.775C14.2658 27.7442 14.2471 27.7163 14.2235 27.6928C14.1999 27.6693 14.1719 27.6506 14.1411 27.638C14.1103 27.6253 14.0773 27.6189 14.044 27.619V27.619ZM13.122 26.697C13.072 26.6972 13.0232 26.7122 12.9817 26.7401C12.9402 26.7681 12.9079 26.8076 12.8889 26.8539C12.8699 26.9001 12.8651 26.951 12.8749 27C12.8848 27.049 12.909 27.094 12.9444 27.1293C12.9798 27.1645 13.0249 27.1885 13.074 27.1982C13.123 27.2079 13.1738 27.2028 13.22 27.1837C13.2662 27.1645 13.3056 27.1321 13.3334 27.0905C13.3612 27.0489 13.376 27 13.376 26.95C13.376 26.9167 13.3694 26.8837 13.3566 26.853C13.3438 26.8222 13.3251 26.7943 13.3015 26.7708C13.2779 26.7473 13.2499 26.7286 13.2191 26.716C13.1883 26.7033 13.1553 26.6969 13.122 26.697ZM12.2 25.775C12.15 25.7752 12.1012 25.7902 12.0597 25.8181C12.0182 25.8461 11.9859 25.8856 11.9669 25.9319C11.9479 25.9781 11.9431 26.029 11.9529 26.078C11.9628 26.127 11.987 26.172 12.0224 26.2073C12.0578 26.2425 12.1029 26.2665 12.152 26.2762C12.201 26.2859 12.2518 26.2808 12.298 26.2617C12.3442 26.2425 12.3836 26.2101 12.4114 26.1685C12.4392 26.1269 12.454 26.078 12.454 26.028V26.028C12.454 25.9947 12.4474 25.9617 12.4346 25.931C12.4218 25.9002 12.4031 25.8723 12.3795 25.8488C12.3559 25.8253 12.3279 25.8066 12.2971 25.794C12.2663 25.7813 12.2333 25.7749 12.2 25.775ZM11.278 24.853C11.228 24.8532 11.1792 24.8682 11.1377 24.8961C11.0962 24.9241 11.0639 24.9636 11.0449 25.0099C11.0259 25.0561 11.0211 25.107 11.0309 25.156C11.0408 25.205 11.065 25.25 11.1004 25.2853C11.1358 25.3205 11.1809 25.3445 11.23 25.3542C11.279 25.3639 11.3298 25.3588 11.376 25.3397C11.4222 25.3205 11.4616 25.2881 11.4894 25.2465C11.5172 25.2049 11.532 25.156 11.532 25.106C11.532 25.0727 11.5254 25.0397 11.5126 25.009C11.4998 24.9782 11.4811 24.9503 11.4575 24.9268C11.4339 24.9033 11.4059 24.8846 11.3751 24.872C11.3443 24.8593 11.3113 24.8529 11.278 24.853V24.853ZM14.042 29.461C13.992 29.4612 13.9432 29.4762 13.9017 29.5041C13.8602 29.5321 13.8279 29.5716 13.8089 29.6179C13.7899 29.6641 13.7851 29.715 13.7949 29.764C13.8048 29.813 13.829 29.858 13.8644 29.8933C13.8998 29.9285 13.9449 29.9525 13.994 29.9622C14.043 29.9719 14.0938 29.9668 14.14 29.9477C14.1862 29.9285 14.2256 29.8961 14.2534 29.8545C14.2812 29.8129 14.296 29.764 14.296 29.714C14.296 29.6807 14.2894 29.6477 14.2766 29.617C14.2638 29.5862 14.2451 29.5583 14.2215 29.5348C14.1979 29.5113 14.1699 29.4926 14.1391 29.48C14.1083 29.4673 14.0753 29.4609 14.042 29.461V29.461ZM13.12 28.539C13.07 28.5392 13.0212 28.5542 12.9797 28.5821C12.9382 28.6101 12.9059 28.6496 12.8869 28.6959C12.8679 28.7421 12.8631 28.793 12.8729 28.842C12.8828 28.891 12.907 28.936 12.9424 28.9713C12.9778 29.0065 13.0229 29.0305 13.072 29.0402C13.121 29.0499 13.1718 29.0448 13.218 29.0257C13.2642 29.0065 13.3036 28.9741 13.3314 28.9325C13.3592 28.8909 13.374 28.842 13.374 28.792C13.374 28.7587 13.3674 28.7257 13.3546 28.695C13.3418 28.6642 13.3231 28.6363 13.2995 28.6128C13.2759 28.5893 13.2479 28.5706 13.2171 28.558C13.1863 28.5453 13.1533 28.5389 13.12 28.539V28.539ZM12.198 27.617C12.148 27.6172 12.0992 27.6322 12.0577 27.6601C12.0162 27.6881 11.9839 27.7276 11.9649 27.7739C11.9459 27.8201 11.9411 27.871 11.9509 27.92C11.9608 27.969 11.985 28.014 12.0204 28.0493C12.0558 28.0845 12.1009 28.1085 12.15 28.1182C12.199 28.1279 12.2498 28.1228 12.296 28.1037C12.3422 28.0845 12.3816 28.0521 12.4094 28.0105C12.4372 27.9689 12.452 27.92 12.452 27.87C12.452 27.8367 12.4454 27.8037 12.4326 27.773C12.4198 27.7422 12.4011 27.7143 12.3775 27.6908C12.3539 27.6673 12.3259 27.6486 12.2951 27.636C12.2643 27.6233 12.2313 27.6169 12.198 27.617ZM11.276 26.695C11.226 26.6952 11.1772 26.7102 11.1357 26.7381C11.0942 26.7661 11.0619 26.8056 11.0429 26.8519C11.0239 26.8981 11.0191 26.949 11.0289 26.998C11.0388 27.047 11.063 27.092 11.0984 27.1273C11.1338 27.1625 11.1789 27.1865 11.228 27.1962C11.277 27.2059 11.3278 27.2008 11.374 27.1817C11.4202 27.1625 11.4596 27.1301 11.4874 27.0885C11.5152 27.0469 11.53 26.998 11.53 26.948C11.53 26.9147 11.5234 26.8817 11.5106 26.851C11.4978 26.8202 11.4791 26.7923 11.4555 26.7688C11.4319 26.7453 11.4039 26.7266 11.3731 26.714C11.3423 26.7013 11.3093 26.6949 11.276 26.695ZM12.196 29.967C12.246 29.967 12.2948 29.9522 12.3364 29.9244C12.378 29.8967 12.4104 29.8572 12.4296 29.8111C12.4488 29.7649 12.4539 29.7141 12.4442 29.665C12.4345 29.616 12.4105 29.5709 12.3752 29.5355C12.3399 29.5 12.2949 29.4759 12.2459 29.466C12.1969 29.4561 12.1461 29.461 12.0998 29.48C12.0536 29.499 12.014 29.5313 11.9861 29.5727C11.9582 29.6142 11.9432 29.663 11.943 29.713V29.713C11.9428 29.7463 11.9493 29.7793 11.9619 29.8101C11.9746 29.8409 11.9932 29.869 12.0167 29.8926C12.0402 29.9162 12.0682 29.9349 12.0989 29.9477C12.1297 29.9604 12.1627 29.967 12.196 29.967ZM11.274 29.045C11.324 29.045 11.3728 29.0302 11.4144 29.0024C11.456 28.9747 11.4884 28.9352 11.5076 28.8891C11.5268 28.8429 11.5319 28.7921 11.5222 28.743C11.5125 28.694 11.4885 28.6489 11.4532 28.6135C11.4179 28.578 11.3729 28.5539 11.3239 28.544C11.2749 28.5341 11.2241 28.539 11.1778 28.558C11.1316 28.577 11.092 28.6093 11.0641 28.6507C11.0362 28.6922 11.0212 28.741 11.021 28.791V28.791C11.0208 28.8243 11.0273 28.8573 11.0399 28.8881C11.0526 28.919 11.0712 28.947 11.0947 28.9706C11.1182 28.9942 11.1462 29.0129 11.1769 29.0257C11.2077 29.0384 11.2407 29.045 11.274 29.045ZM30.8 10.519L20.82 20.499L30.8 30.479C30.8136 30.4931 30.8254 30.5089 30.835 30.526V30.533L30.842 30.548L30.847 30.568C30.8505 30.5788 30.8532 30.5898 30.855 30.601C30.8572 30.6223 30.8572 30.6437 30.855 30.665C30.8532 30.6762 30.8505 30.6872 30.847 30.698L30.842 30.718L30.835 30.733V30.74C30.8254 30.7571 30.8136 30.7729 30.8 30.787V30.787L20.659 40.934C20.6483 40.9448 20.6366 40.9546 20.624 40.963H20.619C20.6082 40.97 20.5968 40.976 20.585 40.981H20.577L20.544 40.991H20.53L20.5 41H10.362C10.3483 41.0013 10.3346 41.0013 10.321 41H10.315C10.303 40.9973 10.2913 40.9936 10.28 40.989H10.274L10.25 40.977H10.244L10.222 40.961L10.209 40.949L0.0659635 30.8C0.0518744 30.7857 0.0397668 30.7695 0.0299635 30.752L0.0239635 30.74C0.0132324 30.7219 0.00515012 30.7024 -3.6532e-05 30.682H-3.65319e-05C-0.00128991 30.6684 -0.00128991 30.6547 -3.6532e-05 30.641L-3.65319e-05 10.361C-0.000901767 10.3497 -0.000901767 10.3383 -3.6532e-05 10.327L-3.65319e-05 10.313C0.00377029 10.2964 0.00947448 10.2803 0.0169635 10.265L0.0259635 10.249C0.0344394 10.2346 0.044502 10.2212 0.0559635 10.209V10.204L10.2 0.0650141L10.206 0.0590141L10.234 0.0400141H10.24L10.255 0.0310141H10.26H10.268H10.276H10.282L10.312 0.0220141H10.321H10.334H20.5C20.5129 0.0208903 20.526 0.0208903 20.539 0.0220141H20.546C20.5639 0.0201283 20.5821 0.0204642 20.6 0.0230141L20.616 0.0310141C20.6304 0.039483 20.6438 0.0495462 20.656 0.0610141H20.662L30.8 10.2C30.8137 10.2141 30.8254 10.2299 30.835 10.247V10.255L30.842 10.27C30.842 10.277 30.842 10.284 30.847 10.29C30.8614 10.3321 30.8614 10.3779 30.847 10.42C30.8456 10.4268 30.844 10.4334 30.842 10.44L30.835 10.455V10.463C30.8254 10.4802 30.8137 10.496 30.8 10.51V10.519ZM20.277 31.178L15.59 35.865L10.9 40.553H20.275L20.277 31.178ZM16.24 34.578L19.961 30.857H10.586V40.232L16.24 34.578ZM0.763963 20.276H10.139V10.9L0.763963 20.276ZM10.139 20.723H0.762963L10.138 30.1L10.139 20.723ZM19.961 30.414L10.586 21.039V30.414H19.961ZM9.82196 10.585H0.446963V19.96L9.82196 10.585ZM20.277 20.723H10.9L20.277 30.1V20.723ZM19.96 20.276L10.585 10.9V20.275L19.96 20.276ZM10.585 10.137H19.96L10.585 0.762014V10.137ZM0.446963 30.414H9.82196L0.446963 21.04V30.414ZM20.277 19.96V10.584H10.9L20.277 19.96ZM20.724 10.137H30.1L20.724 0.762014V10.137ZM20.277 0.446014H10.9L20.275 9.82101L20.277 0.446014ZM0.762963 10.137H10.138V0.762014L0.762963 10.137ZM10.138 30.861H0.762963L10.138 40.236V30.861ZM30.099 30.861H20.724V40.236L30.099 30.861ZM30.099 30.414L20.724 21.039V30.414H30.099ZM30.099 10.584H20.724V19.96L30.099 10.584Z" fill="white"/>
</g>
<defs>
<clipPath id="clip0">
<rect width="30.861" height="41" fill="white"/>
</clipPath>
</defs>
</svg>
